<svg width="129" height="35" viewBox="0 0 129 35" fill="none" xmlns="http://www.w3.org/2000/svg">
<path d="M38.2042 9.69581C36.3147 9.69581 34.771 10.2216 33.5619 11.2592C33.4588 11.3513 33.3235 11.3989 33.1854 11.3915C33.0474 11.3841 32.9179 11.3224 32.8252 11.2198C32.7402 11.1258 32.6931 11.0035 32.6931 10.8768V3.89224C32.6901 3.75598 32.6341 3.62624 32.537 3.53066C32.4398 3.43507 32.3092 3.38119 32.1729 3.38049H28.8268C28.6889 3.38049 28.5566 3.4353 28.459 3.53285C28.3614 3.63041 28.3066 3.76272 28.3066 3.90068V26.6763C28.3066 26.8143 28.3614 26.9466 28.459 27.0442C28.5566 27.1417 28.6889 27.1965 28.8268 27.1965H32.1729C32.3108 27.1965 32.4431 27.1417 32.5407 27.0442C32.6383 26.9466 32.6931 26.8143 32.6931 26.6763V26.4936C32.6938 26.3932 32.7235 26.2953 32.7786 26.2114C32.8337 26.1276 32.9119 26.0615 33.0037 26.0211C33.0955 25.9807 33.1971 25.9677 33.2961 25.9836C33.3951 25.9996 33.4875 26.0439 33.5619 26.1112C34.771 27.1543 36.3147 27.6745 38.2042 27.6745C39.3111 27.6836 40.4072 27.4562 41.4192 27.0077C42.4311 26.5591 43.3357 25.8998 44.0724 25.0736C45.6899 23.3491 46.5637 21.0572 46.5047 18.6936C46.559 16.3257 45.6863 14.0303 44.0724 12.2967C43.3368 11.4693 42.4324 10.809 41.4202 10.3604C40.4079 9.91174 39.3114 9.68514 38.2042 9.69581ZM40.7742 22.1296C40.3323 22.5708 39.8054 22.9175 39.2253 23.1485C38.6452 23.3796 38.0242 23.4902 37.4 23.4737C36.7752 23.4951 36.1528 23.3867 35.5721 23.1554C34.9913 22.924 34.4648 22.5748 34.0259 22.1296C33.5827 21.6743 33.2366 21.1337 33.0085 20.5407C32.7804 19.9476 32.675 19.3145 32.6987 18.6795C32.6738 18.044 32.7786 17.4101 33.0068 16.8165C33.235 16.2228 33.5817 15.6819 34.0259 15.2266C34.464 14.7804 34.9903 14.4304 35.5713 14.199C36.1523 13.9676 36.7751 13.8598 37.4 13.8826C38.0244 13.8647 38.6458 13.9748 39.226 14.2059C39.8063 14.437 40.3331 14.7844 40.7742 15.2266C41.2213 15.6804 41.5709 16.2207 41.8015 16.8145C42.0322 17.4083 42.139 18.043 42.1154 18.6795C42.1386 19.3156 42.0316 19.9498 41.801 20.543C41.5703 21.1363 41.2209 21.6762 40.7742 22.1296Z" fill="#296CF0"/>
<path d="M65.1457 10.1767H61.8025C61.7342 10.1759 61.6664 10.1887 61.603 10.2141C61.5396 10.2396 61.4818 10.2773 61.433 10.325C61.3842 10.3728 61.3452 10.4298 61.3184 10.4926C61.2916 10.5554 61.2774 10.6229 61.2767 10.6912V10.8824C61.2767 11.0204 61.2219 11.1527 61.1243 11.2503C61.0268 11.3478 60.8945 11.4026 60.7565 11.4026C60.6276 11.4051 60.5027 11.3578 60.4078 11.2705C59.1894 10.2189 57.6316 9.69304 55.7346 9.69304C54.6328 9.68392 53.5418 9.91169 52.5357 10.3609C51.5295 10.8101 50.6317 11.4703 49.9029 12.2968C48.2833 14.0382 47.4726 16.1649 47.4707 18.6768C47.4688 21.1887 48.2796 23.3153 49.9029 25.0568C50.6329 25.8816 51.531 26.5404 52.537 26.9891C53.5429 27.4377 54.6332 27.6657 55.7346 27.6577C57.6298 27.6577 59.1875 27.1319 60.4078 26.0803C60.4583 26.0342 60.5174 25.9986 60.5816 25.9755C60.6459 25.9524 60.7142 25.9422 60.7824 25.9456C60.8506 25.949 60.9175 25.9659 60.9792 25.9953C61.0408 26.0247 61.0961 26.066 61.1417 26.1168C61.2288 26.2132 61.2769 26.3384 61.2767 26.4683V26.6595C61.2782 26.798 61.3342 26.9303 61.4327 27.0277C61.5311 27.1251 61.664 27.1797 61.8025 27.1797H65.1457C65.2837 27.179 65.4159 27.124 65.5138 27.0267C65.6116 26.9294 65.6673 26.7975 65.6687 26.6595V10.6912C65.6672 10.5538 65.6114 10.4225 65.5134 10.326C65.4154 10.2296 65.2832 10.1759 65.1457 10.1767ZM59.9354 22.1297C59.4936 22.5708 58.9666 22.9175 58.3865 23.1486C57.8065 23.3796 57.1855 23.4903 56.5613 23.4737C55.9367 23.4934 55.3148 23.3842 54.7343 23.153C54.1537 22.9218 53.6271 22.5734 53.1871 22.1297C52.7449 21.6738 52.3996 21.1331 52.172 20.5401C51.9443 19.9472 51.8392 19.3143 51.8627 18.6796C51.8389 18.0444 51.944 17.4111 52.1716 16.8176C52.3992 16.2242 52.7447 15.683 53.1871 15.2267C53.6264 14.782 54.1529 14.433 54.7336 14.2017C55.3143 13.9704 55.9366 13.8617 56.5613 13.8826C57.1856 13.8648 57.807 13.9748 58.3873 14.2059C58.9675 14.4371 59.4944 14.7844 59.9354 15.2267C60.3825 15.6804 60.7321 16.2208 60.9628 16.8146C61.1934 17.4083 61.3003 18.043 61.2767 18.6796C61.2999 19.3157 61.1929 19.9498 60.9622 20.5431C60.7316 21.1364 60.3822 21.6763 59.9354 22.1297Z" fill="#296CF0"/>
<path d="M76.9377 9.69606C75.1681 9.69606 73.7622 10.16 72.72 11.0879C72.6271 11.1712 72.5073 11.2181 72.3825 11.2201C72.2465 11.2142 72.1181 11.1559 72.0242 11.0573C71.9304 10.9587 71.8784 10.8276 71.8792 10.6914C71.8792 10.5542 71.8247 10.4226 71.7277 10.3256C71.6307 10.2286 71.4991 10.1741 71.3619 10.1741H68.0102C67.9415 10.1729 67.8733 10.1855 67.8096 10.211C67.7459 10.2365 67.6878 10.2744 67.6389 10.3226C67.5899 10.3707 67.5511 10.4282 67.5245 10.4915C67.498 10.5548 67.4844 10.6228 67.4844 10.6914V26.6625C67.4844 26.8005 67.5392 26.9328 67.6367 27.0303C67.7343 27.1279 67.8666 27.1827 68.0046 27.1827H71.3534C71.4914 27.1827 71.6237 27.1279 71.7212 27.0303C71.8188 26.9328 71.8736 26.8005 71.8736 26.6625V18.0021C71.8736 16.5962 72.2129 15.5427 72.8915 14.8417C73.2471 14.4848 73.6735 14.2063 74.1432 14.0242C74.613 13.8421 75.1157 13.7604 75.6189 13.7844C76.0664 13.7625 76.5138 13.8312 76.9341 13.9863C77.3545 14.1414 77.7392 14.3797 78.0652 14.687C78.6782 15.2887 78.9856 16.1557 78.9875 17.2879V26.6625C78.9871 26.7305 79.0001 26.7978 79.0258 26.8607C79.0514 26.9236 79.0892 26.9809 79.137 27.0292C79.1848 27.0775 79.2416 27.1159 79.3043 27.1422C79.3669 27.1686 79.4341 27.1823 79.502 27.1827H82.8537C82.9917 27.1827 83.124 27.1279 83.2215 27.0303C83.3191 26.9328 83.3739 26.8005 83.3739 26.6625V16.7396C83.3739 14.5408 82.7637 12.8172 81.5434 11.5687C80.9483 10.9533 80.2312 10.4689 79.4381 10.1464C78.6451 9.82395 77.7934 9.67056 76.9377 9.69606Z" fill="#296CF0"/>
<path d="M93.8755 18.9045C93.8007 18.8112 93.7599 18.6951 93.7599 18.5755C93.7599 18.4559 93.8007 18.3398 93.8755 18.2465L99.7522 11.023C99.813 10.9464 99.851 10.8541 99.8617 10.7569C99.8725 10.6596 99.8556 10.5613 99.8131 10.4733C99.7705 10.3852 99.7039 10.3109 99.621 10.2589C99.5382 10.2069 99.4423 10.1794 99.3445 10.1794H95.4585C95.379 10.1789 95.3003 10.1966 95.2287 10.2312C95.157 10.2658 95.0942 10.3164 95.0452 10.3791L90.2848 16.4891C90.2003 16.5984 90.076 16.6698 89.939 16.6877C89.802 16.7056 89.6635 16.6686 89.5537 16.5847C89.4897 16.5368 89.438 16.4743 89.4028 16.4024C89.3676 16.3306 89.35 16.2514 89.3513 16.1714V3.89224C89.3484 3.75598 89.2924 3.62624 89.1952 3.53066C89.098 3.43507 88.9674 3.38119 88.8311 3.38049H85.4822C85.4138 3.38049 85.3461 3.39406 85.2829 3.42041C85.2198 3.44676 85.1625 3.48537 85.1144 3.53401C85.0663 3.58265 85.0283 3.64035 85.0026 3.70377C84.977 3.76719 84.9641 3.83508 84.9649 3.90349V26.6791C84.9685 26.8139 85.0247 26.9419 85.1213 27.0359C85.2179 27.1299 85.3474 27.1825 85.4822 27.1825H88.8283C88.9663 27.1825 89.0986 27.1276 89.1961 27.0301C89.2937 26.9325 89.3485 26.8002 89.3485 26.6623V20.9402C89.3485 20.8716 89.362 20.8035 89.3883 20.7401C89.4146 20.6766 89.4531 20.619 89.5017 20.5704C89.5502 20.5219 89.6079 20.4833 89.6713 20.4571C89.7348 20.4308 89.8028 20.4172 89.8715 20.4172C89.949 20.4183 90.0254 20.4361 90.0953 20.4696C90.1652 20.5032 90.227 20.5515 90.2764 20.6113L95.3854 26.9997C95.4366 27.0579 95.4992 27.105 95.5693 27.1379C95.6395 27.1708 95.7157 27.1888 95.7931 27.1909H99.5413C99.6416 27.1932 99.7405 27.1664 99.826 27.1138C99.9115 27.0611 99.9799 26.9848 100.023 26.8942C100.066 26.8035 100.082 26.7023 100.069 26.6028C100.056 26.5033 100.014 26.4097 99.949 26.3333L93.8755 18.9045Z" fill="#296CF0"/>
<path d="M104.99 3.38069H101.641C101.574 3.37882 101.508 3.39025 101.445 3.41432C101.383 3.43839 101.326 3.47462 101.277 3.52091C101.229 3.56721 101.19 3.62264 101.163 3.684C101.137 3.74536 101.122 3.81143 101.121 3.87838V26.6821C101.124 26.8174 101.18 26.946 101.278 27.0397C101.375 27.1335 101.506 27.1849 101.641 27.1827H104.99C105.125 27.1842 105.255 27.1325 105.352 27.0387C105.449 26.945 105.505 26.8169 105.508 26.6821V3.87276C105.503 3.73925 105.446 3.61283 105.35 3.52077C105.253 3.42872 105.124 3.3784 104.99 3.38069Z" fill="#296CF0"/>
<path d="M123.483 10.2047C123.43 10.1871 123.374 10.1776 123.317 10.1766H119.743C119.634 10.1758 119.527 10.2097 119.438 10.2733C119.349 10.337 119.283 10.4271 119.249 10.5309L116.06 20.226C116.015 20.3573 115.92 20.4653 115.796 20.5265C115.671 20.5877 115.528 20.5969 115.396 20.5522C115.325 20.5283 115.259 20.489 115.204 20.437C115.149 20.385 115.106 20.3217 115.079 20.2513L111.3 10.5084C111.261 10.41 111.194 10.3255 111.107 10.2663C111.019 10.207 110.916 10.1757 110.81 10.1766H107.155C107.018 10.1766 106.886 10.2306 106.789 10.327C106.692 10.4233 106.636 10.5542 106.635 10.6912C106.635 10.7609 106.649 10.8298 106.677 10.8936L113.268 26.4373C113.313 26.5637 113.313 26.7018 113.268 26.8282C112.866 27.8798 112.337 28.6558 111.688 29.1423C111.014 29.623 110.209 29.886 109.382 29.8958C109.249 29.9024 109.123 29.9601 109.031 30.0571C108.94 30.154 108.889 30.2826 108.89 30.416V33.4809C108.889 33.6143 108.94 33.7429 109.031 33.8399C109.123 33.9368 109.249 33.9946 109.382 34.0011C111.335 34.0179 112.985 33.5203 114.331 32.508C115.793 31.4002 116.965 29.6334 117.848 27.2077L123.798 10.8711C123.844 10.741 123.837 10.5979 123.778 10.473C123.719 10.3482 123.613 10.2518 123.483 10.2047Z" fill="#296CF0"/>
<path d="M128.012 12.963C128.003 12.9446 127.997 12.9245 127.995 12.9039V12.6593C128.003 12.5727 127.991 12.4854 127.959 12.4044C127.927 12.3234 127.877 12.2509 127.813 12.1925C127.73 12.1308 127.633 12.0894 127.531 12.0716C127.66 12.0602 127.783 12.0124 127.886 11.9339C127.939 11.8868 127.98 11.8279 128.006 11.7619C128.032 11.696 128.041 11.6248 128.035 11.5543C128.039 11.4537 128.015 11.354 127.965 11.2665C127.915 11.179 127.842 11.1072 127.753 11.0594C127.626 10.9947 127.486 10.9592 127.343 10.9554H126.322V13.0277H126.885V12.2882H127.11C127.172 12.2858 127.234 12.2964 127.292 12.3191C127.328 12.3318 127.36 12.3523 127.387 12.379C127.414 12.4058 127.434 12.4381 127.447 12.4737C127.467 12.5556 127.478 12.6396 127.478 12.724C127.48 12.8187 127.493 12.9129 127.514 13.0052H128.049L128.021 12.963H128.012ZM127.377 11.8383C127.293 11.8912 127.195 11.9177 127.096 11.9142H126.893V11.3153H127.011C127.12 11.3094 127.229 11.3247 127.332 11.3603C127.381 11.3743 127.424 11.4048 127.454 11.4468C127.484 11.4887 127.498 11.5395 127.495 11.5908C127.498 11.6387 127.489 11.6866 127.468 11.7299C127.447 11.7732 127.416 11.8105 127.377 11.8383Z" fill="#296CF0"/>
<path d="M128.446 10.6575H128.46C128.114 10.3152 127.649 10.1199 127.162 10.1126C126.675 10.1052 126.204 10.2864 125.848 10.6181C125.657 10.79 125.506 11.0012 125.405 11.2371C125.303 11.473 125.254 11.728 125.26 11.9847C125.258 12.2282 125.303 12.4699 125.394 12.6959C125.485 12.9219 125.62 13.1278 125.79 13.3017C125.961 13.4756 126.164 13.6142 126.388 13.7096C126.612 13.8049 126.853 13.8551 127.096 13.8573H127.136C127.626 13.8618 128.098 13.6718 128.449 13.3287C128.803 12.974 129.001 12.4934 129 11.9925C129 11.4916 128.801 11.0114 128.446 10.6575ZM128.221 13.0869C128.08 13.2334 127.911 13.3494 127.723 13.4277C127.535 13.5061 127.333 13.5451 127.13 13.5424C126.825 13.541 126.526 13.4493 126.273 13.2791C126.019 13.1088 125.821 12.8674 125.704 12.5851C125.587 12.3029 125.556 11.9923 125.614 11.6925C125.673 11.3926 125.819 11.1167 126.034 10.8993C126.17 10.7553 126.334 10.6397 126.515 10.559C126.697 10.4784 126.892 10.4343 127.091 10.4294C127.289 10.4244 127.487 10.4586 127.672 10.5301C127.857 10.6016 128.027 10.7089 128.171 10.8459L128.224 10.8993C128.369 11.0403 128.484 11.2091 128.561 11.3956C128.639 11.5822 128.678 11.7826 128.677 11.9847C128.679 12.1896 128.64 12.393 128.562 12.5824C128.483 12.7718 128.368 12.9434 128.221 13.0869Z" fill="#296CF0"/>
<path d="M21.3411 17.254C21.2995 17.1326 21.221 17.0273 21.1167 16.9527C21.0123 16.8781 20.8873 16.8379 20.759 16.8378C20.6127 16.8331 20.4696 16.8821 20.3569 16.9756C18.9004 18.5277 15.1185 19.9983 10.6871 19.9983C6.25572 19.9983 2.42604 18.5024 0.989205 16.97C0.942767 16.9092 0.884403 16.8585 0.817685 16.821C0.736556 16.7596 0.638216 16.7252 0.536504 16.7226C0.467155 16.7203 0.39806 16.732 0.333329 16.757C0.268598 16.782 0.209554 16.8197 0.159711 16.868C0.109867 16.9163 0.0702416 16.9741 0.0431926 17.038C0.0161435 17.1019 0.00222337 17.1706 0.00226027 17.2399C-0.000607451 17.252 -0.000607451 17.2645 0.00226027 17.2765C0.000779539 17.2791 0 17.282 0 17.2849C0 17.2879 0.000779539 17.2908 0.00226027 17.2934V27.6577C0.00226027 28.6107 0.380859 29.5248 1.05477 30.1987C1.72868 30.8726 2.6427 31.2512 3.59575 31.2512H13.094C18.0878 31.2512 22.2887 27.2978 22.3196 22.304C22.3315 21.0272 22.1417 19.7566 21.7572 18.539L21.3411 17.254Z" fill="#296CF0"/>
<path d="M22.3193 8.95349C22.3326 10.2304 22.1428 11.5013 21.7569 12.7185L21.3408 14.0035C21.3172 14.0704 21.283 14.1331 21.2395 14.1891C21.1348 14.3184 20.9832 14.4011 20.8178 14.419C20.6524 14.4369 20.4866 14.3886 20.3566 14.2847C18.9001 12.7326 15.1182 11.2536 10.6868 11.2536C6.25541 11.2536 2.42573 12.7551 0.988898 14.2875C0.942184 14.3488 0.883914 14.4004 0.817378 14.4393C0.7354 14.4988 0.637406 14.5321 0.536197 14.5349C0.466986 14.5376 0.397952 14.5262 0.333233 14.5016C0.268514 14.4769 0.209441 14.4394 0.159556 14.3914C0.10967 14.3433 0.0699977 14.2857 0.0429165 14.2219C0.0158353 14.1582 0.00190257 14.0896 0.00195326 14.0204V3.59981C0.00195312 3.12767 0.0949946 2.66016 0.27576 2.22399C0.456526 1.78782 0.721472 1.39156 1.05546 1.05783C1.38944 0.724109 1.78592 0.459473 2.22222 0.279049C2.65853 0.0986246 3.12612 0.0059488 3.59826 0.00631824H13.0937C18.0875 0.00631824 22.2883 3.95972 22.3193 8.95349Z" fill="#296CF0"/>
</svg>
