<svg width="68" height="20" viewBox="0 0 68 20" fill="none" xmlns="http://www.w3.org/2000/svg">
<path d="M12.6887 10.7425H15.6096C16.0069 10.7425 16.1704 11.0209 15.9835 11.4617C14.745 14.3155 11.7306 16.1717 8.34227 16.1717C3.73883 16.1717 0 12.761 0 8.12065C0 3.43387 3.7622 0 8.34227 0C11.6838 0 14.6983 1.83295 15.9601 4.68677C16.1237 5.08121 15.9835 5.33643 15.5395 5.33643H12.5952C12.1512 5.33643 12.011 5.22042 11.8007 4.9652C10.9828 3.94432 9.74433 3.36427 8.36564 3.36427C5.88866 3.36427 3.85567 5.31322 3.85567 8.07425C3.85567 10.8353 5.88866 12.7842 8.36564 12.7842C9.7677 12.7842 11.0062 12.1346 11.8708 11.0673C12.0577 10.8353 12.2914 10.7425 12.6887 10.7425Z" fill="black"/>
<path d="M20.5501 15.9629H17.8628C17.6291 15.9629 17.4422 15.7541 17.4422 15.522V0.62645C17.4422 0.394432 17.6291 0.185615 17.8628 0.185615H20.5501C20.7837 0.185615 20.994 0.394432 20.994 0.62645V15.522C20.994 15.7541 20.7837 15.9629 20.5501 15.9629Z" fill="black"/>
<path d="M28.687 12.9466C30.1591 12.9466 31.3742 11.7633 31.3742 10.0928C31.3742 8.44548 30.1591 7.28538 28.687 7.28538C27.2148 7.28538 25.9997 8.46868 25.9997 10.0928C25.9997 11.7401 27.2148 12.9466 28.687 12.9466ZM34.3186 15.9629H31.7481C31.5144 15.9629 31.3275 15.7541 31.3275 15.522V14.6868C30.5096 15.5916 29.388 16.1485 27.9859 16.1485C24.9014 16.1485 22.4711 13.5499 22.4711 10.0928C22.4711 6.63573 24.9715 4.06033 28.0327 4.06033C29.4113 4.06033 30.5096 4.57077 31.3275 5.45244V4.68677C31.3275 4.45476 31.5144 4.24594 31.7481 4.24594H34.3186C34.5522 4.24594 34.7626 4.45476 34.7626 4.68677V15.522C34.7626 15.7541 34.5522 15.9629 34.3186 15.9629Z" fill="black"/>
<path d="M53.315 15.9629H50.6278C50.3941 15.9629 50.2071 15.7541 50.2071 15.522V8.83991C50.2071 7.63341 49.4594 7.19258 48.6649 7.19258C47.6601 7.19258 47.0291 7.81903 47.0291 8.97912V15.522C47.0291 15.7541 46.8188 15.9629 46.5851 15.9629H43.8979C43.6642 15.9629 43.4772 15.7541 43.4772 15.522V8.83991C43.4772 7.63341 42.7295 7.19258 41.935 7.19258C41.1405 7.19258 40.2992 7.65661 40.2992 8.7935V15.522C40.2992 15.7541 40.0889 15.9629 39.8553 15.9629H37.1913C36.9577 15.9629 36.7707 15.7541 36.7707 15.522V4.68677C36.7707 4.45476 36.9577 4.24594 37.1913 4.24594H39.7618C39.9955 4.24594 40.2058 4.45476 40.2058 4.68677V5.70766C40.5329 5.058 41.5144 4.08353 43.2202 4.08353C44.8326 4.08353 45.8607 4.66357 46.4216 5.87007C46.7955 5.31322 47.9171 4.06033 49.8566 4.06033C52.2869 4.06033 53.759 5.52204 53.759 8.09745V15.522C53.759 15.7541 53.5487 15.9629 53.315 15.9629Z" fill="black"/>
<path d="M61.901 12.9466C63.3732 12.9466 64.5883 11.7401 64.5883 10.0928C64.5883 8.46868 63.3732 7.28538 61.901 7.28538C60.4289 7.28538 59.2137 8.44548 59.2137 10.0928C59.2137 11.7633 60.4289 12.9466 61.901 12.9466ZM58.91 20H56.2227C55.989 20 55.7787 19.7912 55.7787 19.5592V4.68677C55.7787 4.45476 55.989 4.24594 56.2227 4.24594H58.7931C59.0268 4.24594 59.2137 4.45476 59.2137 4.68677V5.49884C60.0082 4.57077 61.1766 4.06033 62.5553 4.06033C65.6399 4.06033 68 6.63573 68 10.0928C68 13.5499 65.6399 16.1485 62.5553 16.1485C61.2 16.1485 60.1017 15.6381 59.3306 14.7796V19.5592C59.3306 19.7912 59.1436 20 58.91 20Z" fill="black"/>
</svg>
