<svg width="350" height="395" viewBox="0 0 530 512" fill="none" xmlns="http://www.w3.org/2000/svg">
<rect x="164.5" y="467.5" width="201" height="44" rx="6.5" fill="white"/>
<path d="M185.056 496.192C183.563 496.192 182.453 495.691 181.728 494.688C181.013 493.675 180.656 492.251 180.656 490.416C180.656 488.581 181.013 487.163 181.728 486.16C182.453 485.147 183.563 484.64 185.056 484.64C185.632 484.64 186.139 484.72 186.576 484.88C187.024 485.029 187.408 485.243 187.728 485.52C188.048 485.797 188.309 486.133 188.512 486.528C188.725 486.923 188.891 487.365 189.008 487.856L186.768 488.4C186.704 488.133 186.629 487.888 186.544 487.664C186.459 487.44 186.347 487.248 186.208 487.088C186.08 486.928 185.915 486.805 185.712 486.72C185.52 486.624 185.285 486.576 185.008 486.576C184.357 486.576 183.893 486.832 183.616 487.344C183.349 487.845 183.216 488.544 183.216 489.44V491.392C183.216 492.288 183.349 492.992 183.616 493.504C183.893 494.005 184.357 494.256 185.008 494.256C185.563 494.256 185.963 494.085 186.208 493.744C186.464 493.403 186.651 492.965 186.768 492.432L189.008 492.976C188.891 493.467 188.725 493.909 188.512 494.304C188.309 494.699 188.048 495.04 187.728 495.328C187.408 495.605 187.024 495.819 186.576 495.968C186.139 496.117 185.632 496.192 185.056 496.192ZM195.866 494.496H195.77C195.588 494.965 195.3 495.365 194.906 495.696C194.522 496.027 193.999 496.192 193.338 496.192C192.943 496.192 192.58 496.128 192.25 496C191.919 495.861 191.636 495.659 191.402 495.392C191.167 495.125 190.98 494.8 190.842 494.416C190.714 494.032 190.65 493.589 190.65 493.088V487.744H193.018V492.768C193.018 493.835 193.482 494.368 194.41 494.368C194.591 494.368 194.767 494.347 194.938 494.304C195.119 494.251 195.274 494.176 195.402 494.08C195.54 493.973 195.652 493.845 195.738 493.696C195.823 493.547 195.866 493.371 195.866 493.168V487.744H198.234V496H195.866V494.496ZM204.051 496.192C203.134 496.192 202.334 496.053 201.651 495.776C200.979 495.499 200.473 495.12 200.131 494.64L201.459 493.408C201.779 493.76 202.153 494.037 202.579 494.24C203.017 494.432 203.513 494.528 204.068 494.528C204.537 494.528 204.905 494.459 205.172 494.32C205.438 494.171 205.572 493.947 205.572 493.648C205.572 493.413 205.481 493.253 205.299 493.168C205.118 493.072 204.868 492.997 204.548 492.944L203.22 492.736C202.846 492.683 202.5 492.603 202.179 492.496C201.859 492.379 201.582 492.224 201.347 492.032C201.113 491.84 200.926 491.605 200.787 491.328C200.649 491.051 200.579 490.715 200.579 490.32C200.579 489.456 200.91 488.779 201.572 488.288C202.233 487.797 203.161 487.552 204.356 487.552C205.166 487.552 205.854 487.664 206.42 487.888C206.996 488.101 207.454 488.411 207.795 488.816L206.612 490.16C206.366 489.893 206.052 489.669 205.668 489.488C205.284 489.307 204.82 489.216 204.276 489.216C203.358 489.216 202.9 489.493 202.9 490.048C202.9 490.293 202.99 490.464 203.171 490.56C203.353 490.645 203.604 490.715 203.924 490.768L205.236 490.976C205.609 491.029 205.956 491.115 206.276 491.232C206.596 491.339 206.873 491.488 207.108 491.68C207.353 491.872 207.545 492.107 207.684 492.384C207.822 492.661 207.892 492.997 207.892 493.392C207.892 494.256 207.556 494.939 206.884 495.44C206.222 495.941 205.278 496.192 204.051 496.192ZM214.461 496C213.608 496 212.973 495.776 212.557 495.328C212.141 494.88 211.933 494.309 211.933 493.616V489.584H209.693V487.744H211.149C211.501 487.744 211.752 487.675 211.901 487.536C212.051 487.397 212.125 487.141 212.125 486.768V484.832H214.301V487.744H217.517V489.584H214.301V494.16H217.517V496H214.461ZM223.495 496.192C222.855 496.192 222.279 496.096 221.767 495.904C221.255 495.701 220.818 495.413 220.455 495.04C220.103 494.667 219.831 494.213 219.639 493.68C219.447 493.147 219.351 492.544 219.351 491.872C219.351 491.2 219.447 490.597 219.639 490.064C219.831 489.531 220.103 489.077 220.455 488.704C220.818 488.331 221.255 488.048 221.767 487.856C222.279 487.653 222.855 487.552 223.495 487.552C224.135 487.552 224.711 487.653 225.223 487.856C225.735 488.048 226.167 488.331 226.519 488.704C226.882 489.077 227.159 489.531 227.351 490.064C227.543 490.597 227.639 491.2 227.639 491.872C227.639 492.544 227.543 493.147 227.351 493.68C227.159 494.213 226.882 494.667 226.519 495.04C226.167 495.413 225.735 495.701 225.223 495.904C224.711 496.096 224.135 496.192 223.495 496.192ZM223.495 494.432C224.028 494.432 224.444 494.267 224.743 493.936C225.042 493.605 225.191 493.136 225.191 492.528V491.216C225.191 490.608 225.042 490.139 224.743 489.808C224.444 489.477 224.028 489.312 223.495 489.312C222.962 489.312 222.546 489.477 222.247 489.808C221.948 490.139 221.799 490.608 221.799 491.216V492.528C221.799 493.136 221.948 493.605 222.247 493.936C222.546 494.267 222.962 494.432 223.495 494.432ZM228.849 496V487.744H230.753V488.96H230.865C230.993 488.576 231.174 488.245 231.409 487.968C231.654 487.691 231.995 487.552 232.433 487.552C233.233 487.552 233.723 488.021 233.905 488.96H234.001C234.065 488.768 234.145 488.587 234.241 488.416C234.337 488.245 234.454 488.096 234.593 487.968C234.731 487.84 234.897 487.739 235.089 487.664C235.281 487.589 235.505 487.552 235.761 487.552C236.913 487.552 237.489 488.4 237.489 490.096V496H235.585V490.336C235.585 489.952 235.515 489.685 235.377 489.536C235.249 489.376 235.078 489.296 234.865 489.296C234.662 489.296 234.486 489.365 234.337 489.504C234.198 489.632 234.129 489.835 234.129 490.112V496H232.209V490.336C232.209 489.952 232.145 489.685 232.017 489.536C231.899 489.376 231.734 489.296 231.521 489.296C231.307 489.296 231.126 489.365 230.977 489.504C230.827 489.632 230.753 489.835 230.753 490.112V496H228.849ZM243.066 496.192C241.68 496.192 240.629 495.808 239.914 495.04C239.2 494.272 238.842 493.227 238.842 491.904C238.842 491.232 238.933 490.629 239.114 490.096C239.306 489.552 239.573 489.093 239.914 488.72C240.266 488.336 240.688 488.048 241.178 487.856C241.68 487.653 242.24 487.552 242.859 487.552C243.477 487.552 244.032 487.653 244.523 487.856C245.013 488.048 245.429 488.325 245.77 488.688C246.112 489.051 246.373 489.493 246.554 490.016C246.746 490.528 246.842 491.104 246.842 491.744V492.448H241.194V492.592C241.194 493.125 241.36 493.557 241.69 493.888C242.021 494.208 242.506 494.368 243.146 494.368C243.637 494.368 244.058 494.277 244.411 494.096C244.762 493.904 245.066 493.653 245.322 493.344L246.602 494.736C246.282 495.131 245.834 495.472 245.259 495.76C244.682 496.048 243.952 496.192 243.066 496.192ZM242.874 489.248C242.362 489.248 241.952 489.408 241.642 489.728C241.344 490.037 241.194 490.459 241.194 490.992V491.12H244.523V490.992C244.523 490.448 244.373 490.021 244.074 489.712C243.786 489.403 243.386 489.248 242.874 489.248ZM248.9 494.16H250.804V489.584H248.9V487.744H253.172V490.08H253.284C253.359 489.781 253.46 489.493 253.588 489.216C253.727 488.928 253.898 488.677 254.1 488.464C254.314 488.24 254.57 488.064 254.868 487.936C255.167 487.808 255.519 487.744 255.924 487.744H256.708V489.92H254.948C254.362 489.92 253.919 490.096 253.62 490.448C253.322 490.789 253.172 491.211 253.172 491.712V494.16H255.892V496H248.9V494.16ZM272.376 486.688C271.842 486.688 271.469 486.581 271.256 486.368C271.053 486.144 270.952 485.877 270.952 485.568V485.104C270.952 484.784 271.053 484.517 271.256 484.304C271.469 484.091 271.842 483.984 272.376 483.984C272.909 483.984 273.277 484.091 273.48 484.304C273.693 484.517 273.8 484.784 273.8 485.104V485.568C273.8 485.877 273.693 486.144 273.48 486.368C273.277 486.581 272.909 486.688 272.376 486.688ZM268.568 494.16H271.192V489.584H268.568V487.744H273.56V494.16H275.992V496H268.568V494.16ZM277.778 496V487.744H280.146V489.248H280.242C280.338 489.013 280.455 488.795 280.594 488.592C280.732 488.389 280.898 488.213 281.09 488.064C281.292 487.904 281.522 487.781 281.778 487.696C282.044 487.6 282.343 487.552 282.674 487.552C283.068 487.552 283.431 487.621 283.762 487.76C284.092 487.888 284.375 488.085 284.61 488.352C284.844 488.619 285.026 488.944 285.154 489.328C285.292 489.712 285.362 490.155 285.362 490.656V496H282.994V490.976C282.994 489.909 282.53 489.376 281.602 489.376C281.42 489.376 281.239 489.403 281.058 489.456C280.887 489.499 280.732 489.573 280.594 489.68C280.455 489.776 280.343 489.899 280.258 490.048C280.183 490.197 280.146 490.373 280.146 490.576V496H277.778ZM291.851 496C290.998 496 290.363 495.776 289.947 495.328C289.531 494.88 289.323 494.309 289.323 493.616V489.584H287.083V487.744H288.539C288.891 487.744 289.142 487.675 289.291 487.536C289.441 487.397 289.515 487.141 289.515 486.768V484.832H291.691V487.744H294.907V489.584H291.691V494.16H294.907V496H291.851ZM301.109 496.192C299.722 496.192 298.672 495.808 297.957 495.04C297.242 494.272 296.885 493.227 296.885 491.904C296.885 491.232 296.976 490.629 297.157 490.096C297.349 489.552 297.616 489.093 297.957 488.72C298.309 488.336 298.73 488.048 299.221 487.856C299.722 487.653 300.282 487.552 300.901 487.552C301.52 487.552 302.074 487.653 302.565 487.856C303.056 488.048 303.472 488.325 303.813 488.688C304.154 489.051 304.416 489.493 304.597 490.016C304.789 490.528 304.885 491.104 304.885 491.744V492.448H299.237V492.592C299.237 493.125 299.402 493.557 299.733 493.888C300.064 494.208 300.549 494.368 301.189 494.368C301.68 494.368 302.101 494.277 302.453 494.096C302.805 493.904 303.109 493.653 303.365 493.344L304.645 494.736C304.325 495.131 303.877 495.472 303.301 495.76C302.725 496.048 301.994 496.192 301.109 496.192ZM300.917 489.248C300.405 489.248 299.994 489.408 299.685 489.728C299.386 490.037 299.237 490.459 299.237 490.992V491.12H302.565V490.992C302.565 490.448 302.416 490.021 302.117 489.712C301.829 489.403 301.429 489.248 300.917 489.248ZM306.943 494.16H308.847V489.584H306.943V487.744H311.215V490.08H311.327C311.401 489.781 311.503 489.493 311.631 489.216C311.769 488.928 311.94 488.677 312.143 488.464C312.356 488.24 312.612 488.064 312.911 487.936C313.209 487.808 313.561 487.744 313.967 487.744H314.751V489.92H312.991C312.404 489.92 311.961 490.096 311.663 490.448C311.364 490.789 311.215 491.211 311.215 491.712V494.16H313.935V496H306.943V494.16ZM316.568 494.16H319V489.584H316.408V487.744H319V486.544C319 485.84 319.203 485.269 319.608 484.832C320.024 484.384 320.664 484.16 321.528 484.16H324.328V486H321.368V487.744H324.328V489.584H321.368V494.16H323.96V496H316.568V494.16ZM332.898 496C332.408 496 332.013 495.877 331.714 495.632C331.416 495.376 331.24 495.013 331.186 494.544H331.106C330.957 495.088 330.658 495.499 330.21 495.776C329.773 496.053 329.234 496.192 328.594 496.192C327.794 496.192 327.149 495.979 326.658 495.552C326.178 495.115 325.938 494.507 325.938 493.728C325.938 492.864 326.253 492.224 326.882 491.808C327.512 491.392 328.434 491.184 329.65 491.184H330.978V490.768C330.978 490.277 330.861 489.909 330.626 489.664C330.402 489.408 330.018 489.28 329.474 489.28C328.973 489.28 328.568 489.376 328.258 489.568C327.949 489.76 327.682 490.011 327.458 490.32L326.162 489.168C326.44 488.699 326.872 488.315 327.458 488.016C328.056 487.707 328.818 487.552 329.746 487.552C330.877 487.552 331.757 487.813 332.386 488.336C333.026 488.848 333.346 489.627 333.346 490.672V494.288H334.258V496H332.898ZM329.49 494.64C329.906 494.64 330.258 494.539 330.546 494.336C330.834 494.133 330.978 493.84 330.978 493.456V492.464H329.714C328.744 492.464 328.258 492.789 328.258 493.44V493.76C328.258 494.048 328.37 494.267 328.594 494.416C328.818 494.565 329.117 494.64 329.49 494.64ZM339.916 496.192C339.265 496.192 338.679 496.096 338.156 495.904C337.644 495.701 337.207 495.413 336.844 495.04C336.492 494.667 336.22 494.213 336.028 493.68C335.836 493.147 335.74 492.544 335.74 491.872C335.74 491.2 335.836 490.597 336.028 490.064C336.22 489.531 336.492 489.077 336.844 488.704C337.207 488.331 337.644 488.048 338.156 487.856C338.679 487.653 339.26 487.552 339.9 487.552C340.807 487.552 341.532 487.739 342.076 488.112C342.631 488.475 343.052 488.96 343.34 489.568L341.516 490.56C341.367 490.24 341.169 489.973 340.924 489.76C340.689 489.547 340.348 489.44 339.9 489.44C339.356 489.44 338.935 489.6 338.636 489.92C338.348 490.229 338.204 490.656 338.204 491.2V492.544C338.204 493.088 338.348 493.52 338.636 493.84C338.935 494.149 339.367 494.304 339.932 494.304C340.391 494.304 340.748 494.197 341.004 493.984C341.271 493.771 341.495 493.493 341.676 493.152L343.468 494.176C343.169 494.784 342.732 495.275 342.156 495.648C341.591 496.011 340.844 496.192 339.916 496.192ZM349.478 496.192C348.091 496.192 347.04 495.808 346.326 495.04C345.611 494.272 345.254 493.227 345.254 491.904C345.254 491.232 345.344 490.629 345.526 490.096C345.718 489.552 345.984 489.093 346.326 488.72C346.678 488.336 347.099 488.048 347.59 487.856C348.091 487.653 348.651 487.552 349.27 487.552C349.888 487.552 350.443 487.653 350.934 487.856C351.424 488.048 351.84 488.325 352.182 488.688C352.523 489.051 352.784 489.493 352.966 490.016C353.158 490.528 353.254 491.104 353.254 491.744V492.448H347.606V492.592C347.606 493.125 347.771 493.557 348.102 493.888C348.432 494.208 348.918 494.368 349.558 494.368C350.048 494.368 350.47 494.277 350.822 494.096C351.174 493.904 351.478 493.653 351.734 493.344L353.014 494.736C352.694 495.131 352.246 495.472 351.67 495.76C351.094 496.048 350.363 496.192 349.478 496.192ZM349.286 489.248C348.774 489.248 348.363 489.408 348.054 489.728C347.755 490.037 347.606 490.459 347.606 490.992V491.12H350.934V490.992C350.934 490.448 350.784 490.021 350.486 489.712C350.198 489.403 349.798 489.248 349.286 489.248Z" fill="black"/>
<rect x="164.5" y="467.5" width="201" height="44" rx="6.5" stroke="black"/>
<rect x="155.5" y="253.5" width="220" height="123" rx="12.5" fill="white"/>
<rect x="167.5" y="265.5" width="196" height="44" rx="6.5" fill="white"/>
<path d="M188.056 294.192C186.563 294.192 185.453 293.691 184.728 292.688C184.013 291.675 183.656 290.251 183.656 288.416C183.656 286.581 184.013 285.163 184.728 284.16C185.453 283.147 186.563 282.64 188.056 282.64C188.632 282.64 189.139 282.72 189.576 282.88C190.024 283.029 190.408 283.243 190.728 283.52C191.048 283.797 191.309 284.133 191.512 284.528C191.725 284.923 191.891 285.365 192.008 285.856L189.768 286.4C189.704 286.133 189.629 285.888 189.544 285.664C189.459 285.44 189.347 285.248 189.208 285.088C189.08 284.928 188.915 284.805 188.712 284.72C188.52 284.624 188.285 284.576 188.008 284.576C187.357 284.576 186.893 284.832 186.616 285.344C186.349 285.845 186.216 286.544 186.216 287.44V289.392C186.216 290.288 186.349 290.992 186.616 291.504C186.893 292.005 187.357 292.256 188.008 292.256C188.563 292.256 188.963 292.085 189.208 291.744C189.464 291.403 189.651 290.965 189.768 290.432L192.008 290.976C191.891 291.467 191.725 291.909 191.512 292.304C191.309 292.699 191.048 293.04 190.728 293.328C190.408 293.605 190.024 293.819 189.576 293.968C189.139 294.117 188.632 294.192 188.056 294.192ZM193.858 292.16H195.762V287.584H193.858V285.744H198.13V288.08H198.242C198.316 287.781 198.418 287.493 198.546 287.216C198.684 286.928 198.855 286.677 199.058 286.464C199.271 286.24 199.527 286.064 199.826 285.936C200.124 285.808 200.476 285.744 200.882 285.744H201.666V287.92H199.906C199.319 287.92 198.876 288.096 198.578 288.448C198.279 288.789 198.13 289.211 198.13 289.712V292.16H200.85V294H193.858V292.16ZM207.372 294.192C205.985 294.192 204.934 293.808 204.219 293.04C203.505 292.272 203.147 291.227 203.147 289.904C203.147 289.232 203.238 288.629 203.419 288.096C203.611 287.552 203.878 287.093 204.219 286.72C204.571 286.336 204.993 286.048 205.484 285.856C205.985 285.653 206.545 285.552 207.164 285.552C207.782 285.552 208.337 285.653 208.828 285.856C209.318 286.048 209.734 286.325 210.076 286.688C210.417 287.051 210.678 287.493 210.859 288.016C211.052 288.528 211.148 289.104 211.148 289.744V290.448H205.5V290.592C205.5 291.125 205.665 291.557 205.996 291.888C206.326 292.208 206.811 292.368 207.451 292.368C207.942 292.368 208.364 292.277 208.716 292.096C209.068 291.904 209.372 291.653 209.628 291.344L210.908 292.736C210.587 293.131 210.139 293.472 209.564 293.76C208.988 294.048 208.257 294.192 207.372 294.192ZM207.18 287.248C206.668 287.248 206.257 287.408 205.947 287.728C205.649 288.037 205.5 288.459 205.5 288.992V289.12H208.828V288.992C208.828 288.448 208.678 288.021 208.379 287.712C208.092 287.403 207.692 287.248 207.18 287.248ZM219.813 294C219.323 294 218.928 293.877 218.629 293.632C218.331 293.376 218.155 293.013 218.101 292.544H218.021C217.872 293.088 217.573 293.499 217.125 293.776C216.688 294.053 216.149 294.192 215.509 294.192C214.709 294.192 214.064 293.979 213.573 293.552C213.093 293.115 212.853 292.507 212.853 291.728C212.853 290.864 213.168 290.224 213.797 289.808C214.427 289.392 215.349 289.184 216.565 289.184H217.893V288.768C217.893 288.277 217.776 287.909 217.541 287.664C217.317 287.408 216.933 287.28 216.389 287.28C215.888 287.28 215.483 287.376 215.173 287.568C214.864 287.76 214.597 288.011 214.373 288.32L213.077 287.168C213.355 286.699 213.787 286.315 214.373 286.016C214.971 285.707 215.733 285.552 216.661 285.552C217.792 285.552 218.672 285.813 219.301 286.336C219.941 286.848 220.261 287.627 220.261 288.672V292.288H221.173V294H219.813ZM216.405 292.64C216.821 292.64 217.173 292.539 217.461 292.336C217.749 292.133 217.893 291.84 217.893 291.456V290.464H216.629C215.659 290.464 215.173 290.789 215.173 291.44V291.76C215.173 292.048 215.285 292.267 215.509 292.416C215.733 292.565 216.032 292.64 216.405 292.64ZM227.135 294C226.282 294 225.647 293.776 225.231 293.328C224.815 292.88 224.607 292.309 224.607 291.616V287.584H222.367V285.744H223.823C224.175 285.744 224.426 285.675 224.575 285.536C224.724 285.397 224.799 285.141 224.799 284.768V282.832H226.975V285.744H230.191V287.584H226.975V292.16H230.191V294H227.135ZM236.393 294.192C235.006 294.192 233.955 293.808 233.241 293.04C232.526 292.272 232.169 291.227 232.169 289.904C232.169 289.232 232.259 288.629 232.441 288.096C232.633 287.552 232.899 287.093 233.241 286.72C233.593 286.336 234.014 286.048 234.505 285.856C235.006 285.653 235.566 285.552 236.185 285.552C236.803 285.552 237.358 285.653 237.849 285.856C238.339 286.048 238.755 286.325 239.097 286.688C239.438 287.051 239.699 287.493 239.881 288.016C240.073 288.528 240.169 289.104 240.169 289.744V290.448H234.521V290.592C234.521 291.125 234.686 291.557 235.017 291.888C235.347 292.208 235.833 292.368 236.473 292.368C236.963 292.368 237.385 292.277 237.737 292.096C238.089 291.904 238.393 291.653 238.649 291.344L239.929 292.736C239.609 293.131 239.161 293.472 238.585 293.76C238.009 294.048 237.278 294.192 236.393 294.192ZM236.201 287.248C235.689 287.248 235.278 287.408 234.969 287.728C234.67 288.037 234.521 288.459 234.521 288.992V289.12H237.849V288.992C237.849 288.448 237.699 288.021 237.401 287.712C237.113 287.403 236.713 287.248 236.201 287.248ZM251.9 292.16H253.804V287.584H251.9V285.744H256.172V288.08H256.284C256.359 287.781 256.46 287.493 256.588 287.216C256.727 286.928 256.898 286.677 257.1 286.464C257.314 286.24 257.57 286.064 257.868 285.936C258.167 285.808 258.519 285.744 258.924 285.744H259.708V287.92H257.948C257.362 287.92 256.919 288.096 256.62 288.448C256.322 288.789 256.172 289.211 256.172 289.712V292.16H258.892V294H251.9V292.16ZM266.582 292.496H266.486C266.305 292.965 266.017 293.365 265.622 293.696C265.238 294.027 264.715 294.192 264.054 294.192C263.659 294.192 263.297 294.128 262.966 294C262.635 293.861 262.353 293.659 262.118 293.392C261.883 293.125 261.697 292.8 261.558 292.416C261.43 292.032 261.366 291.589 261.366 291.088V285.744H263.734V290.768C263.734 291.835 264.198 292.368 265.126 292.368C265.307 292.368 265.483 292.347 265.654 292.304C265.835 292.251 265.99 292.176 266.118 292.08C266.257 291.973 266.369 291.845 266.454 291.696C266.539 291.547 266.582 291.371 266.582 291.168V285.744H268.95V294H266.582V292.496ZM271.152 292.16H273.68V284H271.152V282.16H276.048V292.16H278.576V294H271.152V292.16ZM284.762 294.192C283.375 294.192 282.324 293.808 281.61 293.04C280.895 292.272 280.538 291.227 280.538 289.904C280.538 289.232 280.628 288.629 280.81 288.096C281.002 287.552 281.268 287.093 281.61 286.72C281.962 286.336 282.383 286.048 282.874 285.856C283.375 285.653 283.935 285.552 284.554 285.552C285.172 285.552 285.727 285.653 286.218 285.856C286.708 286.048 287.124 286.325 287.466 286.688C287.807 287.051 288.068 287.493 288.25 288.016C288.442 288.528 288.538 289.104 288.538 289.744V290.448H282.89V290.592C282.89 291.125 283.055 291.557 283.386 291.888C283.716 292.208 284.202 292.368 284.842 292.368C285.332 292.368 285.754 292.277 286.106 292.096C286.458 291.904 286.762 291.653 287.018 291.344L288.298 292.736C287.978 293.131 287.53 293.472 286.954 293.76C286.378 294.048 285.647 294.192 284.762 294.192ZM284.57 287.248C284.058 287.248 283.647 287.408 283.338 287.728C283.039 288.037 282.89 288.459 282.89 288.992V289.12H286.218V288.992C286.218 288.448 286.068 288.021 285.77 287.712C285.482 287.403 285.082 287.248 284.57 287.248ZM294.115 294.192C293.198 294.192 292.398 294.053 291.715 293.776C291.043 293.499 290.537 293.12 290.195 292.64L291.523 291.408C291.843 291.76 292.217 292.037 292.643 292.24C293.081 292.432 293.577 292.528 294.131 292.528C294.601 292.528 294.969 292.459 295.235 292.32C295.502 292.171 295.635 291.947 295.635 291.648C295.635 291.413 295.545 291.253 295.363 291.168C295.182 291.072 294.931 290.997 294.611 290.944L293.283 290.736C292.91 290.683 292.563 290.603 292.243 290.496C291.923 290.379 291.646 290.224 291.411 290.032C291.177 289.84 290.99 289.605 290.851 289.328C290.713 289.051 290.643 288.715 290.643 288.32C290.643 287.456 290.974 286.779 291.635 286.288C292.297 285.797 293.225 285.552 294.419 285.552C295.23 285.552 295.918 285.664 296.483 285.888C297.059 286.101 297.518 286.411 297.859 286.816L296.675 288.16C296.43 287.893 296.115 287.669 295.731 287.488C295.347 287.307 294.883 287.216 294.339 287.216C293.422 287.216 292.963 287.493 292.963 288.048C292.963 288.293 293.054 288.464 293.235 288.56C293.417 288.645 293.667 288.715 293.987 288.768L295.299 288.976C295.673 289.029 296.019 289.115 296.339 289.232C296.659 289.339 296.937 289.488 297.171 289.68C297.417 289.872 297.609 290.107 297.747 290.384C297.886 290.661 297.955 290.997 297.955 291.392C297.955 292.256 297.619 292.939 296.947 293.44C296.286 293.941 295.342 294.192 294.115 294.192Z" fill="black"/>
<rect x="167.5" y="265.5" width="196" height="44" rx="6.5" stroke="black"/>
<rect x="167.5" y="320.5" width="196" height="44" rx="6.5" fill="white"/>
<path d="M188.056 349.192C186.563 349.192 185.453 348.691 184.728 347.688C184.013 346.675 183.656 345.251 183.656 343.416C183.656 341.581 184.013 340.163 184.728 339.16C185.453 338.147 186.563 337.64 188.056 337.64C188.632 337.64 189.139 337.72 189.576 337.88C190.024 338.029 190.408 338.243 190.728 338.52C191.048 338.797 191.309 339.133 191.512 339.528C191.725 339.923 191.891 340.365 192.008 340.856L189.768 341.4C189.704 341.133 189.629 340.888 189.544 340.664C189.459 340.44 189.347 340.248 189.208 340.088C189.08 339.928 188.915 339.805 188.712 339.72C188.52 339.624 188.285 339.576 188.008 339.576C187.357 339.576 186.893 339.832 186.616 340.344C186.349 340.845 186.216 341.544 186.216 342.44V344.392C186.216 345.288 186.349 345.992 186.616 346.504C186.893 347.005 187.357 347.256 188.008 347.256C188.563 347.256 188.963 347.085 189.208 346.744C189.464 346.403 189.651 345.965 189.768 345.432L192.008 345.976C191.891 346.467 191.725 346.909 191.512 347.304C191.309 347.699 191.048 348.04 190.728 348.328C190.408 348.605 190.024 348.819 189.576 348.968C189.139 349.117 188.632 349.192 188.056 349.192ZM197.474 349.192C196.834 349.192 196.258 349.096 195.746 348.904C195.234 348.701 194.796 348.413 194.434 348.04C194.082 347.667 193.81 347.213 193.618 346.68C193.426 346.147 193.33 345.544 193.33 344.872C193.33 344.2 193.426 343.597 193.618 343.064C193.81 342.531 194.082 342.077 194.434 341.704C194.796 341.331 195.234 341.048 195.746 340.856C196.258 340.653 196.834 340.552 197.474 340.552C198.114 340.552 198.69 340.653 199.202 340.856C199.714 341.048 200.146 341.331 200.498 341.704C200.86 342.077 201.138 342.531 201.33 343.064C201.522 343.597 201.618 344.2 201.618 344.872C201.618 345.544 201.522 346.147 201.33 346.68C201.138 347.213 200.86 347.667 200.498 348.04C200.146 348.413 199.714 348.701 199.202 348.904C198.69 349.096 198.114 349.192 197.474 349.192ZM197.474 347.432C198.007 347.432 198.423 347.267 198.722 346.936C199.02 346.605 199.17 346.136 199.17 345.528V344.216C199.17 343.608 199.02 343.139 198.722 342.808C198.423 342.477 198.007 342.312 197.474 342.312C196.94 342.312 196.524 342.477 196.226 342.808C195.927 343.139 195.778 343.608 195.778 344.216V345.528C195.778 346.136 195.927 346.605 196.226 346.936C196.524 347.267 196.94 347.432 197.474 347.432ZM203.387 349V340.744H205.756V342.248H205.852C205.948 342.013 206.065 341.795 206.204 341.592C206.342 341.389 206.508 341.213 206.7 341.064C206.902 340.904 207.132 340.781 207.388 340.696C207.654 340.6 207.953 340.552 208.284 340.552C208.678 340.552 209.041 340.621 209.372 340.76C209.702 340.888 209.985 341.085 210.22 341.352C210.454 341.619 210.635 341.944 210.764 342.328C210.902 342.712 210.972 343.155 210.972 343.656V349H208.604V343.976C208.604 342.909 208.14 342.376 207.212 342.376C207.03 342.376 206.849 342.403 206.668 342.456C206.497 342.499 206.342 342.573 206.204 342.68C206.065 342.776 205.953 342.899 205.868 343.048C205.793 343.197 205.756 343.373 205.756 343.576V349H203.387ZM213.157 347.16H215.589V342.584H212.997V340.744H215.589V339.544C215.589 338.84 215.792 338.269 216.197 337.832C216.613 337.384 217.253 337.16 218.117 337.16H220.917V339H217.957V340.744H220.917V342.584H217.957V347.16H220.549V349H213.157V347.16ZM227.007 339.688C226.474 339.688 226.1 339.581 225.887 339.368C225.684 339.144 225.583 338.877 225.583 338.568V338.104C225.583 337.784 225.684 337.517 225.887 337.304C226.1 337.091 226.474 336.984 227.007 336.984C227.54 336.984 227.908 337.091 228.111 337.304C228.324 337.517 228.431 337.784 228.431 338.104V338.568C228.431 338.877 228.324 339.144 228.111 339.368C227.908 339.581 227.54 339.688 227.007 339.688ZM223.199 347.16H225.823V342.584H223.199V340.744H228.191V347.16H230.623V349H223.199V347.16ZM240.697 349.832C240.697 350.707 240.329 351.352 239.593 351.768C238.857 352.184 237.699 352.392 236.121 352.392C235.331 352.392 234.681 352.344 234.169 352.248C233.657 352.163 233.246 352.035 232.937 351.864C232.638 351.693 232.425 351.491 232.297 351.256C232.179 351.021 232.121 350.765 232.121 350.488C232.121 350.019 232.259 349.661 232.537 349.416C232.814 349.181 233.203 349 233.705 348.872V348.776C233.353 348.669 233.07 348.52 232.857 348.328C232.654 348.125 232.553 347.843 232.553 347.48C232.553 347.075 232.686 346.776 232.953 346.584C233.23 346.392 233.593 346.243 234.041 346.136V346.04C233.55 345.805 233.166 345.475 232.889 345.048C232.622 344.621 232.489 344.104 232.489 343.496C232.489 343.016 232.574 342.595 232.745 342.232C232.915 341.859 233.155 341.549 233.465 341.304C233.785 341.059 234.163 340.872 234.601 340.744C235.038 340.616 235.529 340.552 236.073 340.552C236.595 340.552 237.081 340.611 237.529 340.728V340.28C237.529 339.96 237.641 339.693 237.865 339.48C238.089 339.267 238.398 339.16 238.793 339.16H240.249V340.888H238.265V341.032C238.713 341.267 239.059 341.592 239.305 342.008C239.561 342.413 239.689 342.909 239.689 343.496C239.689 343.976 239.603 344.397 239.433 344.76C239.262 345.123 239.017 345.432 238.697 345.688C238.377 345.933 237.993 346.12 237.545 346.248C237.107 346.376 236.617 346.44 236.073 346.44C235.827 346.44 235.593 346.429 235.369 346.408C235.145 346.376 234.931 346.333 234.729 346.28C234.611 346.344 234.51 346.424 234.425 346.52C234.35 346.616 234.313 346.739 234.313 346.888C234.313 347.016 234.345 347.117 234.409 347.192C234.473 347.267 234.558 347.325 234.665 347.368C234.782 347.4 234.915 347.421 235.065 347.432C235.214 347.443 235.369 347.448 235.529 347.448H237.417C238.003 347.448 238.505 347.507 238.921 347.624C239.337 347.741 239.678 347.907 239.945 348.12C240.211 348.333 240.403 348.584 240.521 348.872C240.638 349.16 240.697 349.48 240.697 349.832ZM238.457 350.008C238.457 349.795 238.371 349.624 238.201 349.496C238.03 349.379 237.705 349.32 237.225 349.32H234.393C234.179 349.501 234.073 349.725 234.073 349.992C234.073 350.248 234.179 350.456 234.393 350.616C234.617 350.787 234.99 350.872 235.513 350.872H236.905C237.449 350.872 237.843 350.797 238.089 350.648C238.334 350.499 238.457 350.285 238.457 350.008ZM236.073 344.936C236.553 344.936 236.899 344.819 237.113 344.584C237.337 344.349 237.449 344.051 237.449 343.688V343.304C237.449 342.941 237.337 342.643 237.113 342.408C236.899 342.173 236.553 342.056 236.073 342.056C235.603 342.056 235.262 342.173 235.049 342.408C234.835 342.643 234.729 342.941 234.729 343.304V343.688C234.729 344.051 234.835 344.349 235.049 344.584C235.262 344.819 235.603 344.936 236.073 344.936ZM247.234 347.496H247.138C246.957 347.965 246.669 348.365 246.274 348.696C245.89 349.027 245.368 349.192 244.706 349.192C244.312 349.192 243.949 349.128 243.618 349C243.288 348.861 243.005 348.659 242.77 348.392C242.536 348.125 242.349 347.8 242.21 347.416C242.082 347.032 242.018 346.589 242.018 346.088V340.744H244.386V345.768C244.386 346.835 244.85 347.368 245.778 347.368C245.96 347.368 246.136 347.347 246.306 347.304C246.488 347.251 246.642 347.176 246.77 347.08C246.909 346.973 247.021 346.845 247.106 346.696C247.192 346.547 247.234 346.371 247.234 346.168V340.744H249.602V349H247.234V347.496ZM251.9 347.16H253.804V342.584H251.9V340.744H256.172V343.08H256.284C256.359 342.781 256.46 342.493 256.588 342.216C256.727 341.928 256.898 341.677 257.1 341.464C257.314 341.24 257.57 341.064 257.868 340.936C258.167 340.808 258.519 340.744 258.924 340.744H259.708V342.92H257.948C257.362 342.92 256.919 343.096 256.62 343.448C256.322 343.789 256.172 344.211 256.172 344.712V347.16H258.892V349H251.9V347.16ZM265.414 349.192C264.027 349.192 262.977 348.808 262.262 348.04C261.547 347.272 261.19 346.227 261.19 344.904C261.19 344.232 261.281 343.629 261.462 343.096C261.654 342.552 261.921 342.093 262.262 341.72C262.614 341.336 263.035 341.048 263.526 340.856C264.027 340.653 264.587 340.552 265.206 340.552C265.825 340.552 266.379 340.653 266.87 340.856C267.361 341.048 267.777 341.325 268.118 341.688C268.459 342.051 268.721 342.493 268.902 343.016C269.094 343.528 269.19 344.104 269.19 344.744V345.448H263.542V345.592C263.542 346.125 263.707 346.557 264.038 346.888C264.369 347.208 264.854 347.368 265.494 347.368C265.985 347.368 266.406 347.277 266.758 347.096C267.11 346.904 267.414 346.653 267.67 346.344L268.95 347.736C268.63 348.131 268.182 348.472 267.606 348.76C267.03 349.048 266.299 349.192 265.414 349.192ZM265.222 342.248C264.71 342.248 264.299 342.408 263.99 342.728C263.691 343.037 263.542 343.459 263.542 343.992V344.12H266.87V343.992C266.87 343.448 266.721 343.021 266.422 342.712C266.134 342.403 265.734 342.248 265.222 342.248ZM280.922 347.16H282.826V342.584H280.922V340.744H285.194V343.08H285.306C285.38 342.781 285.482 342.493 285.61 342.216C285.748 341.928 285.919 341.677 286.122 341.464C286.335 341.24 286.591 341.064 286.89 340.936C287.188 340.808 287.54 340.744 287.946 340.744H288.73V342.92H286.97C286.383 342.92 285.94 343.096 285.642 343.448C285.343 343.789 285.194 344.211 285.194 344.712V347.16H287.914V349H280.922V347.16ZM294.435 349.192C293.049 349.192 291.998 348.808 291.283 348.04C290.569 347.272 290.211 346.227 290.211 344.904C290.211 344.232 290.302 343.629 290.483 343.096C290.675 342.552 290.942 342.093 291.283 341.72C291.635 341.336 292.057 341.048 292.547 340.856C293.049 340.653 293.609 340.552 294.227 340.552C294.846 340.552 295.401 340.653 295.891 340.856C296.382 341.048 296.798 341.325 297.139 341.688C297.481 342.051 297.742 342.493 297.923 343.016C298.115 343.528 298.211 344.104 298.211 344.744V345.448H292.563V345.592C292.563 346.125 292.729 346.557 293.059 346.888C293.39 347.208 293.875 347.368 294.515 347.368C295.006 347.368 295.427 347.277 295.779 347.096C296.131 346.904 296.435 346.653 296.691 346.344L297.971 347.736C297.651 348.131 297.203 348.472 296.627 348.76C296.051 349.048 295.321 349.192 294.435 349.192ZM294.243 342.248C293.731 342.248 293.321 342.408 293.011 342.728C292.713 343.037 292.563 343.459 292.563 343.992V344.12H295.891V343.992C295.891 343.448 295.742 343.021 295.443 342.712C295.155 342.403 294.755 342.248 294.243 342.248ZM299.197 340.744H301.165L301.757 347.432H301.917L302.893 340.744H304.973L305.933 347.432H306.093L306.701 340.744H308.573L307.597 349H304.781L303.965 343.304H303.805L302.989 349H300.173L299.197 340.744ZM316.551 349C316.06 349 315.665 348.877 315.367 348.632C315.068 348.376 314.892 348.013 314.839 347.544H314.759C314.609 348.088 314.311 348.499 313.863 348.776C313.425 349.053 312.887 349.192 312.247 349.192C311.447 349.192 310.801 348.979 310.311 348.552C309.831 348.115 309.591 347.507 309.591 346.728C309.591 345.864 309.905 345.224 310.535 344.808C311.164 344.392 312.087 344.184 313.303 344.184H314.631V343.768C314.631 343.277 314.513 342.909 314.279 342.664C314.055 342.408 313.671 342.28 313.127 342.28C312.625 342.28 312.22 342.376 311.911 342.568C311.601 342.76 311.335 343.011 311.111 343.32L309.815 342.168C310.092 341.699 310.524 341.315 311.111 341.016C311.708 340.707 312.471 340.552 313.399 340.552C314.529 340.552 315.409 340.813 316.039 341.336C316.679 341.848 316.999 342.627 316.999 343.672V347.288H317.911V349H316.551ZM313.143 347.64C313.559 347.64 313.911 347.539 314.199 347.336C314.487 347.133 314.631 346.84 314.631 346.456V345.464H313.367C312.396 345.464 311.911 345.789 311.911 346.44V346.76C311.911 347.048 312.023 347.267 312.247 347.416C312.471 347.565 312.769 347.64 313.143 347.64ZM319.616 347.16H321.52V342.584H319.616V340.744H323.888V343.08H324C324.075 342.781 324.176 342.493 324.304 342.216C324.443 341.928 324.614 341.677 324.816 341.464C325.03 341.24 325.286 341.064 325.584 340.936C325.883 340.808 326.235 340.744 326.64 340.744H327.424V342.92H325.664C325.078 342.92 324.635 343.096 324.336 343.448C324.038 343.789 323.888 344.211 323.888 344.712V347.16H326.608V349H319.616V347.16ZM334.394 347.496H334.282C334.069 347.997 333.77 348.408 333.386 348.728C333.013 349.037 332.496 349.192 331.834 349.192C331.376 349.192 330.954 349.107 330.57 348.936C330.197 348.765 329.872 348.504 329.594 348.152C329.328 347.8 329.114 347.352 328.954 346.808C328.805 346.264 328.73 345.619 328.73 344.872C328.73 344.125 328.805 343.48 328.954 342.936C329.114 342.392 329.328 341.944 329.594 341.592C329.872 341.24 330.197 340.979 330.57 340.808C330.954 340.637 331.376 340.552 331.834 340.552C332.165 340.552 332.458 340.595 332.714 340.68C332.97 340.765 333.194 340.883 333.386 341.032C333.589 341.181 333.76 341.363 333.898 341.576C334.048 341.779 334.176 342.003 334.282 342.248H334.394V337.16H336.762V349H334.394V347.496ZM332.858 347.352C333.274 347.352 333.632 347.251 333.93 347.048C334.24 346.845 334.394 346.525 334.394 346.088V343.656C334.394 343.219 334.24 342.899 333.93 342.696C333.632 342.493 333.274 342.392 332.858 342.392C332.325 342.392 331.914 342.557 331.626 342.888C331.338 343.208 331.194 343.656 331.194 344.232V345.512C331.194 346.088 331.338 346.541 331.626 346.872C331.914 347.192 332.325 347.352 332.858 347.352ZM342.484 349.192C341.567 349.192 340.767 349.053 340.084 348.776C339.412 348.499 338.905 348.12 338.564 347.64L339.892 346.408C340.212 346.76 340.585 347.037 341.012 347.24C341.449 347.432 341.945 347.528 342.5 347.528C342.969 347.528 343.337 347.459 343.604 347.32C343.871 347.171 344.004 346.947 344.004 346.648C344.004 346.413 343.913 346.253 343.732 346.168C343.551 346.072 343.3 345.997 342.98 345.944L341.652 345.736C341.279 345.683 340.932 345.603 340.612 345.496C340.292 345.379 340.015 345.224 339.78 345.032C339.545 344.84 339.359 344.605 339.22 344.328C339.081 344.051 339.012 343.715 339.012 343.32C339.012 342.456 339.343 341.779 340.004 341.288C340.665 340.797 341.593 340.552 342.788 340.552C343.599 340.552 344.287 340.664 344.852 340.888C345.428 341.101 345.887 341.411 346.228 341.816L345.044 343.16C344.799 342.893 344.484 342.669 344.1 342.488C343.716 342.307 343.252 342.216 342.708 342.216C341.791 342.216 341.332 342.493 341.332 343.048C341.332 343.293 341.423 343.464 341.604 343.56C341.785 343.645 342.036 343.715 342.356 343.768L343.668 343.976C344.041 344.029 344.388 344.115 344.708 344.232C345.028 344.339 345.305 344.488 345.54 344.68C345.785 344.872 345.977 345.107 346.116 345.384C346.255 345.661 346.324 345.997 346.324 346.392C346.324 347.256 345.988 347.939 345.316 348.44C344.655 348.941 343.711 349.192 342.484 349.192Z" fill="black"/>
<rect x="167.5" y="320.5" width="196" height="44" rx="6.5" stroke="black"/>
<rect x="155.5" y="253.5" width="220" height="123" rx="12.5" stroke="black"/>
<path d="M202 23.5H250.5C258.784 23.5 265.5 30.2157 265.5 38.5V38.5" stroke="black" stroke-dasharray="5 5"/>
<path d="M327.5 23.5H280C271.716 23.5 265 30.2157 265 38.5V38.5" stroke="black" stroke-dasharray="5 5"/>
<rect x="0.5" y="0.5" width="201" height="44" rx="6.5" fill="white"/>
<path d="M19.28 17.832V24.904C19.28 25.256 19.2907 25.5813 19.312 25.88C19.344 26.168 19.408 26.4133 19.504 26.616C19.6107 26.8187 19.7653 26.9787 19.968 27.096C20.1707 27.2027 20.448 27.256 20.8 27.256C21.152 27.256 21.4293 27.2027 21.632 27.096C21.8347 26.9787 21.984 26.8187 22.08 26.616C22.1867 26.4133 22.2507 26.168 22.272 25.88C22.304 25.5813 22.32 25.256 22.32 24.904V17.832H24.72V24.584C24.72 25.352 24.6667 26.024 24.56 26.6C24.464 27.176 24.272 27.656 23.984 28.04C23.696 28.424 23.296 28.712 22.784 28.904C22.272 29.096 21.6107 29.192 20.8 29.192C19.9893 29.192 19.328 29.096 18.816 28.904C18.304 28.712 17.904 28.424 17.616 28.04C17.328 27.656 17.1307 27.176 17.024 26.6C16.928 26.024 16.88 25.352 16.88 24.584V17.832H19.28ZM30.3777 29.192C29.4604 29.192 28.6604 29.0533 27.9778 28.776C27.3057 28.4987 26.7991 28.12 26.4577 27.64L27.7857 26.408C28.1057 26.76 28.4791 27.0373 28.9058 27.24C29.3431 27.432 29.8391 27.528 30.3938 27.528C30.8631 27.528 31.2311 27.4587 31.4978 27.32C31.7644 27.1707 31.8978 26.9467 31.8978 26.648C31.8978 26.4133 31.8071 26.2533 31.6258 26.168C31.4444 26.072 31.1938 25.9973 30.8738 25.944L29.5458 25.736C29.1724 25.6827 28.8258 25.6027 28.5057 25.496C28.1857 25.3787 27.9084 25.224 27.6737 25.032C27.4391 24.84 27.2524 24.6053 27.1137 24.328C26.9751 24.0507 26.9058 23.7147 26.9058 23.32C26.9058 22.456 27.2364 21.7787 27.8978 21.288C28.5591 20.7973 29.4871 20.552 30.6818 20.552C31.4924 20.552 32.1804 20.664 32.7458 20.888C33.3218 21.1013 33.7804 21.4107 34.1217 21.816L32.9378 23.16C32.6924 22.8933 32.3778 22.6693 31.9938 22.488C31.6098 22.3067 31.1458 22.216 30.6018 22.216C29.6844 22.216 29.2258 22.4933 29.2258 23.048C29.2258 23.2933 29.3164 23.464 29.4978 23.56C29.6791 23.6453 29.9298 23.7147 30.2498 23.768L31.5618 23.976C31.9351 24.0293 32.2818 24.1147 32.6018 24.232C32.9218 24.3387 33.1991 24.488 33.4338 24.68C33.6791 24.872 33.8711 25.1067 34.0098 25.384C34.1484 25.6613 34.2178 25.9973 34.2178 26.392C34.2178 27.256 33.8818 27.9387 33.2098 28.44C32.5484 28.9413 31.6044 29.192 30.3777 29.192ZM40.3715 29.192C38.9848 29.192 37.9342 28.808 37.2195 28.04C36.5048 27.272 36.1475 26.2267 36.1475 24.904C36.1475 24.232 36.2382 23.6293 36.4195 23.096C36.6115 22.552 36.8782 22.0933 37.2195 21.72C37.5715 21.336 37.9928 21.048 38.4835 20.856C38.9848 20.6533 39.5448 20.552 40.1635 20.552C40.7822 20.552 41.3368 20.6533 41.8275 20.856C42.3182 21.048 42.7342 21.3253 43.0755 21.688C43.4168 22.0507 43.6782 22.4933 43.8595 23.016C44.0515 23.528 44.1475 24.104 44.1475 24.744V25.448H38.4995V25.592C38.4995 26.1253 38.6648 26.5573 38.9955 26.888C39.3262 27.208 39.8115 27.368 40.4515 27.368C40.9422 27.368 41.3635 27.2773 41.7155 27.096C42.0675 26.904 42.3715 26.6533 42.6275 26.344L43.9075 27.736C43.5875 28.1307 43.1395 28.472 42.5635 28.76C41.9875 29.048 41.2568 29.192 40.3715 29.192ZM40.1795 22.248C39.6675 22.248 39.2568 22.408 38.9475 22.728C38.6488 23.0373 38.4995 23.4587 38.4995 23.992V24.12H41.8275V23.992C41.8275 23.448 41.6782 23.0213 41.3795 22.712C41.0915 22.4027 40.6915 22.248 40.1795 22.248ZM46.2052 27.16H48.1092V22.584H46.2052V20.744H50.4773V23.08H50.5893C50.6639 22.7813 50.7653 22.4933 50.8932 22.216C51.0319 21.928 51.2026 21.6773 51.4053 21.464C51.6186 21.24 51.8746 21.064 52.1733 20.936C52.4719 20.808 52.8239 20.744 53.2292 20.744H54.0133V22.92H52.2533C51.6666 22.92 51.2239 23.096 50.9253 23.448C50.6266 23.7893 50.4773 24.2107 50.4773 24.712V27.16H53.1973V29H46.2052V27.16ZM70.6568 27.496H70.5448C70.3314 27.9973 70.0328 28.408 69.6488 28.728C69.2754 29.0373 68.7581 29.192 68.0968 29.192C67.6381 29.192 67.2168 29.1067 66.8328 28.936C66.4594 28.7653 66.1341 28.504 65.8568 28.152C65.5901 27.8 65.3768 27.352 65.2168 26.808C65.0674 26.264 64.9928 25.6187 64.9928 24.872C64.9928 24.1253 65.0674 23.48 65.2168 22.936C65.3768 22.392 65.5901 21.944 65.8568 21.592C66.1341 21.24 66.4594 20.9787 66.8328 20.808C67.2168 20.6373 67.6381 20.552 68.0968 20.552C68.4274 20.552 68.7208 20.5947 68.9768 20.68C69.2328 20.7653 69.4568 20.8827 69.6488 21.032C69.8514 21.1813 70.0221 21.3627 70.1608 21.576C70.3101 21.7787 70.4381 22.0027 70.5448 22.248H70.6568V17.16H73.0248V29H70.6568V27.496ZM69.1208 27.352C69.5368 27.352 69.8941 27.2507 70.1928 27.048C70.5021 26.8453 70.6568 26.5253 70.6568 26.088V23.656C70.6568 23.2187 70.5021 22.8987 70.1928 22.696C69.8941 22.4933 69.5368 22.392 69.1208 22.392C68.5874 22.392 68.1768 22.5573 67.8888 22.888C67.6008 23.208 67.4568 23.656 67.4568 24.232V25.512C67.4568 26.088 67.6008 26.5413 67.8888 26.872C68.1768 27.192 68.5874 27.352 69.1208 27.352ZM81.8345 29C81.3438 29 80.9492 28.8773 80.6505 28.632C80.3518 28.376 80.1758 28.0133 80.1225 27.544H80.0425C79.8932 28.088 79.5945 28.4987 79.1465 28.776C78.7092 29.0533 78.1705 29.192 77.5305 29.192C76.7305 29.192 76.0852 28.9787 75.5945 28.552C75.1145 28.1147 74.8745 27.5067 74.8745 26.728C74.8745 25.864 75.1892 25.224 75.8185 24.808C76.4478 24.392 77.3705 24.184 78.5865 24.184H79.9145V23.768C79.9145 23.2773 79.7972 22.9093 79.5625 22.664C79.3385 22.408 78.9545 22.28 78.4105 22.28C77.9092 22.28 77.5038 22.376 77.1945 22.568C76.8852 22.76 76.6185 23.0107 76.3945 23.32L75.0985 22.168C75.3758 21.6987 75.8078 21.3147 76.3945 21.016C76.9918 20.7067 77.7545 20.552 78.6825 20.552C79.8132 20.552 80.6932 20.8133 81.3225 21.336C81.9625 21.848 82.2825 22.6267 82.2825 23.672V27.288H83.1945V29H81.8345ZM78.4265 27.64C78.8425 27.64 79.1945 27.5387 79.4825 27.336C79.7705 27.1333 79.9145 26.84 79.9145 26.456V25.464H78.6505C77.6798 25.464 77.1945 25.7893 77.1945 26.44V26.76C77.1945 27.048 77.3065 27.2667 77.5305 27.416C77.7545 27.5653 78.0532 27.64 78.4265 27.64ZM89.1562 29C88.3029 29 87.6682 28.776 87.2522 28.328C86.8362 27.88 86.6282 27.3093 86.6282 26.616V22.584H84.3882V20.744H85.8442C86.1962 20.744 86.4469 20.6747 86.5962 20.536C86.7456 20.3973 86.8202 20.1413 86.8202 19.768V17.832H88.9962V20.744H92.2122V22.584H88.9962V27.16H92.2122V29H89.1562ZM101.182 29C100.691 29 100.297 28.8773 99.998 28.632C99.6993 28.376 99.5233 28.0133 99.47 27.544H99.39C99.2407 28.088 98.942 28.4987 98.494 28.776C98.0567 29.0533 97.518 29.192 96.878 29.192C96.078 29.192 95.4327 28.9787 94.942 28.552C94.462 28.1147 94.222 27.5067 94.222 26.728C94.222 25.864 94.5367 25.224 95.166 24.808C95.7953 24.392 96.718 24.184 97.934 24.184H99.262V23.768C99.262 23.2773 99.1447 22.9093 98.91 22.664C98.686 22.408 98.302 22.28 97.758 22.28C97.2567 22.28 96.8513 22.376 96.542 22.568C96.2327 22.76 95.966 23.0107 95.742 23.32L94.446 22.168C94.7233 21.6987 95.1553 21.3147 95.742 21.016C96.3393 20.7067 97.102 20.552 98.03 20.552C99.1607 20.552 100.041 20.8133 100.67 21.336C101.31 21.848 101.63 22.6267 101.63 23.672V27.288H102.542V29H101.182ZM97.774 27.64C98.19 27.64 98.542 27.5387 98.83 27.336C99.118 27.1333 99.262 26.84 99.262 26.456V25.464H97.998C97.0273 25.464 96.542 25.7893 96.542 26.44V26.76C96.542 27.048 96.654 27.2667 96.878 27.416C97.102 27.5653 97.4007 27.64 97.774 27.64Z" fill="black"/>
<rect x="0.5" y="0.5" width="201" height="44" rx="6.5" stroke="black"/>
<rect x="328.5" y="0.5" width="201" height="44" rx="6.5" fill="white"/>
<path d="M348.624 29.192C347.685 29.192 346.869 29.0373 346.176 28.728C345.483 28.4187 344.923 27.9973 344.496 27.464L345.888 25.928C346.293 26.376 346.736 26.7067 347.216 26.92C347.707 27.1333 348.203 27.24 348.704 27.24C349.28 27.24 349.717 27.112 350.016 26.856C350.315 26.6 350.464 26.232 350.464 25.752C350.464 25.3573 350.347 25.0587 350.112 24.856C349.888 24.6533 349.504 24.5093 348.96 24.424L347.792 24.232C346.789 24.0613 346.064 23.6933 345.616 23.128C345.168 22.552 344.944 21.8533 344.944 21.032C344.944 19.9547 345.296 19.1227 346 18.536C346.704 17.9387 347.691 17.64 348.96 17.64C349.824 17.64 350.576 17.7733 351.216 18.04C351.856 18.3067 352.373 18.6693 352.768 19.128L351.408 20.648C351.109 20.3173 350.757 20.0613 350.352 19.88C349.947 19.688 349.488 19.592 348.976 19.592C347.899 19.592 347.36 20.0347 347.36 20.92C347.36 21.304 347.477 21.592 347.712 21.784C347.957 21.976 348.352 22.12 348.896 22.216L350.064 22.424C350.971 22.584 351.669 22.9253 352.16 23.448C352.651 23.9707 352.896 24.6747 352.896 25.56C352.896 26.0827 352.805 26.568 352.624 27.016C352.443 27.4533 352.171 27.8373 351.808 28.168C351.445 28.488 350.997 28.7387 350.464 28.92C349.941 29.1013 349.328 29.192 348.624 29.192ZM358.698 29.192C357.311 29.192 356.26 28.808 355.546 28.04C354.831 27.272 354.474 26.2267 354.474 24.904C354.474 24.232 354.564 23.6293 354.746 23.096C354.938 22.552 355.204 22.0933 355.546 21.72C355.898 21.336 356.319 21.048 356.81 20.856C357.311 20.6533 357.871 20.552 358.49 20.552C359.108 20.552 359.663 20.6533 360.154 20.856C360.644 21.048 361.06 21.3253 361.402 21.688C361.743 22.0507 362.004 22.4933 362.186 23.016C362.378 23.528 362.474 24.104 362.474 24.744V25.448H356.826V25.592C356.826 26.1253 356.991 26.5573 357.322 26.888C357.652 27.208 358.138 27.368 358.778 27.368C359.268 27.368 359.69 27.2773 360.042 27.096C360.394 26.904 360.698 26.6533 360.954 26.344L362.234 27.736C361.914 28.1307 361.466 28.472 360.89 28.76C360.314 29.048 359.583 29.192 358.698 29.192ZM358.506 22.248C357.994 22.248 357.583 22.408 357.274 22.728C356.975 23.0373 356.826 23.4587 356.826 23.992V24.12H360.154V23.992C360.154 23.448 360.004 23.0213 359.706 22.712C359.418 22.4027 359.018 22.248 358.506 22.248ZM368.051 29.192C367.134 29.192 366.334 29.0533 365.651 28.776C364.979 28.4987 364.473 28.12 364.131 27.64L365.459 26.408C365.779 26.76 366.153 27.0373 366.579 27.24C367.017 27.432 367.513 27.528 368.068 27.528C368.537 27.528 368.905 27.4587 369.172 27.32C369.438 27.1707 369.572 26.9467 369.572 26.648C369.572 26.4133 369.481 26.2533 369.299 26.168C369.118 26.072 368.868 25.9973 368.548 25.944L367.22 25.736C366.846 25.6827 366.5 25.6027 366.179 25.496C365.859 25.3787 365.582 25.224 365.347 25.032C365.113 24.84 364.926 24.6053 364.787 24.328C364.649 24.0507 364.579 23.7147 364.579 23.32C364.579 22.456 364.91 21.7787 365.572 21.288C366.233 20.7973 367.161 20.552 368.356 20.552C369.166 20.552 369.854 20.664 370.42 20.888C370.996 21.1013 371.454 21.4107 371.795 21.816L370.612 23.16C370.366 22.8933 370.052 22.6693 369.668 22.488C369.284 22.3067 368.82 22.216 368.276 22.216C367.358 22.216 366.9 22.4933 366.9 23.048C366.9 23.2933 366.99 23.464 367.171 23.56C367.353 23.6453 367.604 23.7147 367.924 23.768L369.236 23.976C369.609 24.0293 369.956 24.1147 370.276 24.232C370.596 24.3387 370.873 24.488 371.108 24.68C371.353 24.872 371.545 25.1067 371.684 25.384C371.822 25.6613 371.892 25.9973 371.892 26.392C371.892 27.256 371.556 27.9387 370.884 28.44C370.222 28.9413 369.278 29.192 368.051 29.192ZM377.725 29.192C376.808 29.192 376.008 29.0533 375.325 28.776C374.653 28.4987 374.147 28.12 373.805 27.64L375.133 26.408C375.453 26.76 375.827 27.0373 376.253 27.24C376.691 27.432 377.187 27.528 377.741 27.528C378.211 27.528 378.579 27.4587 378.845 27.32C379.112 27.1707 379.245 26.9467 379.245 26.648C379.245 26.4133 379.155 26.2533 378.973 26.168C378.792 26.072 378.541 25.9973 378.221 25.944L376.893 25.736C376.52 25.6827 376.173 25.6027 375.853 25.496C375.533 25.3787 375.256 25.224 375.021 25.032C374.787 24.84 374.6 24.6053 374.461 24.328C374.323 24.0507 374.253 23.7147 374.253 23.32C374.253 22.456 374.584 21.7787 375.245 21.288C375.907 20.7973 376.835 20.552 378.029 20.552C378.84 20.552 379.528 20.664 380.093 20.888C380.669 21.1013 381.128 21.4107 381.469 21.816L380.285 23.16C380.04 22.8933 379.725 22.6693 379.341 22.488C378.957 22.3067 378.493 22.216 377.949 22.216C377.032 22.216 376.573 22.4933 376.573 23.048C376.573 23.2933 376.664 23.464 376.845 23.56C377.027 23.6453 377.277 23.7147 377.597 23.768L378.909 23.976C379.283 24.0293 379.629 24.1147 379.949 24.232C380.269 24.3387 380.547 24.488 380.781 24.68C381.027 24.872 381.219 25.1067 381.357 25.384C381.496 25.6613 381.565 25.9973 381.565 26.392C381.565 27.256 381.229 27.9387 380.557 28.44C379.896 28.9413 378.952 29.192 377.725 29.192ZM388.007 19.688C387.474 19.688 387.1 19.5813 386.887 19.368C386.684 19.144 386.583 18.8773 386.583 18.568V18.104C386.583 17.784 386.684 17.5173 386.887 17.304C387.1 17.0907 387.474 16.984 388.007 16.984C388.54 16.984 388.908 17.0907 389.111 17.304C389.324 17.5173 389.431 17.784 389.431 18.104V18.568C389.431 18.8773 389.324 19.144 389.111 19.368C388.908 19.5813 388.54 19.688 388.007 19.688ZM384.199 27.16H386.823V22.584H384.199V20.744H389.191V27.16H391.623V29H384.199V27.16ZM397.169 29.192C396.529 29.192 395.953 29.096 395.441 28.904C394.929 28.7013 394.491 28.4133 394.129 28.04C393.777 27.6667 393.505 27.2133 393.313 26.68C393.121 26.1467 393.025 25.544 393.025 24.872C393.025 24.2 393.121 23.5973 393.313 23.064C393.505 22.5307 393.777 22.0773 394.129 21.704C394.491 21.3307 394.929 21.048 395.441 20.856C395.953 20.6533 396.529 20.552 397.169 20.552C397.809 20.552 398.385 20.6533 398.897 20.856C399.409 21.048 399.841 21.3307 400.193 21.704C400.555 22.0773 400.833 22.5307 401.025 23.064C401.217 23.5973 401.313 24.2 401.313 24.872C401.313 25.544 401.217 26.1467 401.025 26.68C400.833 27.2133 400.555 27.6667 400.193 28.04C399.841 28.4133 399.409 28.7013 398.897 28.904C398.385 29.096 397.809 29.192 397.169 29.192ZM397.169 27.432C397.702 27.432 398.118 27.2667 398.417 26.936C398.715 26.6053 398.865 26.136 398.865 25.528V24.216C398.865 23.608 398.715 23.1387 398.417 22.808C398.118 22.4773 397.702 22.312 397.169 22.312C396.635 22.312 396.219 22.4773 395.921 22.808C395.622 23.1387 395.473 23.608 395.473 24.216V25.528C395.473 26.136 395.622 26.6053 395.921 26.936C396.219 27.2667 396.635 27.432 397.169 27.432ZM403.082 29V20.744H405.45V22.248H405.546C405.642 22.0133 405.76 21.7947 405.898 21.592C406.037 21.3893 406.202 21.2133 406.394 21.064C406.597 20.904 406.826 20.7813 407.082 20.696C407.349 20.6 407.648 20.552 407.978 20.552C408.373 20.552 408.736 20.6213 409.066 20.76C409.397 20.888 409.68 21.0853 409.914 21.352C410.149 21.6187 410.33 21.944 410.458 22.328C410.597 22.712 410.667 23.1547 410.667 23.656V29H408.299V23.976C408.299 22.9093 407.834 22.376 406.906 22.376C406.725 22.376 406.544 22.4027 406.362 22.456C406.192 22.4987 406.037 22.5733 405.898 22.68C405.76 22.776 405.648 22.8987 405.562 23.048C405.488 23.1973 405.45 23.3733 405.45 23.576V29H403.082ZM427.678 27.496H427.566C427.353 27.9973 427.054 28.408 426.67 28.728C426.297 29.0373 425.779 29.192 425.118 29.192C424.659 29.192 424.238 29.1067 423.854 28.936C423.481 28.7653 423.155 28.504 422.878 28.152C422.611 27.8 422.398 27.352 422.238 26.808C422.089 26.264 422.014 25.6187 422.014 24.872C422.014 24.1253 422.089 23.48 422.238 22.936C422.398 22.392 422.611 21.944 422.878 21.592C423.155 21.24 423.481 20.9787 423.854 20.808C424.238 20.6373 424.659 20.552 425.118 20.552C425.449 20.552 425.742 20.5947 425.998 20.68C426.254 20.7653 426.478 20.8827 426.67 21.032C426.873 21.1813 427.043 21.3627 427.182 21.576C427.331 21.7787 427.459 22.0027 427.566 22.248H427.678V17.16H430.046V29H427.678V27.496ZM426.142 27.352C426.558 27.352 426.915 27.2507 427.214 27.048C427.523 26.8453 427.678 26.5253 427.678 26.088V23.656C427.678 23.2187 427.523 22.8987 427.214 22.696C426.915 22.4933 426.558 22.392 426.142 22.392C425.609 22.392 425.198 22.5573 424.91 22.888C424.622 23.208 424.478 23.656 424.478 24.232V25.512C424.478 26.088 424.622 26.5413 424.91 26.872C425.198 27.192 425.609 27.352 426.142 27.352ZM438.856 29C438.365 29 437.97 28.8773 437.672 28.632C437.373 28.376 437.197 28.0133 437.144 27.544H437.064C436.914 28.088 436.616 28.4987 436.168 28.776C435.73 29.0533 435.192 29.192 434.552 29.192C433.752 29.192 433.106 28.9787 432.616 28.552C432.136 28.1147 431.896 27.5067 431.896 26.728C431.896 25.864 432.21 25.224 432.84 24.808C433.469 24.392 434.392 24.184 435.608 24.184H436.936V23.768C436.936 23.2773 436.818 22.9093 436.584 22.664C436.36 22.408 435.976 22.28 435.432 22.28C434.93 22.28 434.525 22.376 434.216 22.568C433.906 22.76 433.64 23.0107 433.416 23.32L432.12 22.168C432.397 21.6987 432.829 21.3147 433.416 21.016C434.013 20.7067 434.776 20.552 435.704 20.552C436.834 20.552 437.714 20.8133 438.344 21.336C438.984 21.848 439.304 22.6267 439.304 23.672V27.288H440.216V29H438.856ZM435.448 27.64C435.864 27.64 436.216 27.5387 436.504 27.336C436.792 27.1333 436.936 26.84 436.936 26.456V25.464H435.672C434.701 25.464 434.216 25.7893 434.216 26.44V26.76C434.216 27.048 434.328 27.2667 434.552 27.416C434.776 27.5653 435.074 27.64 435.448 27.64ZM446.178 29C445.324 29 444.69 28.776 444.274 28.328C443.858 27.88 443.65 27.3093 443.65 26.616V22.584H441.41V20.744H442.866C443.218 20.744 443.468 20.6747 443.618 20.536C443.767 20.3973 443.842 20.1413 443.842 19.768V17.832H446.018V20.744H449.234V22.584H446.018V27.16H449.234V29H446.178ZM458.203 29C457.713 29 457.318 28.8773 457.019 28.632C456.721 28.376 456.545 28.0133 456.491 27.544H456.411C456.262 28.088 455.963 28.4987 455.515 28.776C455.078 29.0533 454.539 29.192 453.899 29.192C453.099 29.192 452.454 28.9787 451.963 28.552C451.483 28.1147 451.243 27.5067 451.243 26.728C451.243 25.864 451.558 25.224 452.187 24.808C452.817 24.392 453.739 24.184 454.955 24.184H456.283V23.768C456.283 23.2773 456.166 22.9093 455.931 22.664C455.707 22.408 455.323 22.28 454.779 22.28C454.278 22.28 453.873 22.376 453.563 22.568C453.254 22.76 452.987 23.0107 452.763 23.32L451.467 22.168C451.745 21.6987 452.177 21.3147 452.763 21.016C453.361 20.7067 454.123 20.552 455.051 20.552C456.182 20.552 457.062 20.8133 457.691 21.336C458.331 21.848 458.651 22.6267 458.651 23.672V27.288H459.563V29H458.203ZM454.795 27.64C455.211 27.64 455.563 27.5387 455.851 27.336C456.139 27.1333 456.283 26.84 456.283 26.456V25.464H455.019C454.049 25.464 453.563 25.7893 453.563 26.44V26.76C453.563 27.048 453.675 27.2667 453.899 27.416C454.123 27.5653 454.422 27.64 454.795 27.64Z" fill="black"/>
<rect x="328.5" y="0.5" width="201" height="44" rx="6.5" stroke="black"/>
<rect x="164.5" y="119.5" width="201" height="44" rx="6.5" fill="black"/>
<path d="M185.056 148.192C183.563 148.192 182.453 147.691 181.728 146.688C181.013 145.675 180.656 144.251 180.656 142.416C180.656 140.581 181.013 139.163 181.728 138.16C182.453 137.147 183.563 136.64 185.056 136.64C185.632 136.64 186.139 136.72 186.576 136.88C187.024 137.029 187.408 137.243 187.728 137.52C188.048 137.797 188.309 138.133 188.512 138.528C188.725 138.923 188.891 139.365 189.008 139.856L186.768 140.4C186.704 140.133 186.629 139.888 186.544 139.664C186.459 139.44 186.347 139.248 186.208 139.088C186.08 138.928 185.915 138.805 185.712 138.72C185.52 138.624 185.285 138.576 185.008 138.576C184.357 138.576 183.893 138.832 183.616 139.344C183.349 139.845 183.216 140.544 183.216 141.44V143.392C183.216 144.288 183.349 144.992 183.616 145.504C183.893 146.005 184.357 146.256 185.008 146.256C185.563 146.256 185.963 146.085 186.208 145.744C186.464 145.403 186.651 144.965 186.768 144.432L189.008 144.976C188.891 145.467 188.725 145.909 188.512 146.304C188.309 146.699 188.048 147.04 187.728 147.328C187.408 147.605 187.024 147.819 186.576 147.968C186.139 148.117 185.632 148.192 185.056 148.192ZM190.762 146.16H193.29V138H190.762V136.16H195.658V146.16H198.186V148H190.762V146.16ZM207.14 148C206.649 148 206.254 147.877 205.956 147.632C205.657 147.376 205.481 147.013 205.428 146.544H205.348C205.198 147.088 204.9 147.499 204.451 147.776C204.014 148.053 203.476 148.192 202.836 148.192C202.035 148.192 201.39 147.979 200.899 147.552C200.419 147.115 200.179 146.507 200.179 145.728C200.179 144.864 200.494 144.224 201.123 143.808C201.753 143.392 202.675 143.184 203.891 143.184H205.22V142.768C205.22 142.277 205.102 141.909 204.868 141.664C204.644 141.408 204.259 141.28 203.715 141.28C203.214 141.28 202.809 141.376 202.5 141.568C202.19 141.76 201.923 142.011 201.699 142.32L200.403 141.168C200.681 140.699 201.113 140.315 201.699 140.016C202.297 139.707 203.06 139.552 203.988 139.552C205.118 139.552 205.998 139.813 206.628 140.336C207.268 140.848 207.588 141.627 207.588 142.672V146.288H208.5V148H207.14ZM203.732 146.64C204.148 146.64 204.5 146.539 204.787 146.336C205.076 146.133 205.22 145.84 205.22 145.456V144.464H203.956C202.985 144.464 202.5 144.789 202.5 145.44V145.76C202.5 146.048 202.612 146.267 202.836 146.416C203.059 146.565 203.358 146.64 203.732 146.64ZM209.501 148V139.744H211.405V140.96H211.517C211.645 140.576 211.827 140.245 212.061 139.968C212.307 139.691 212.648 139.552 213.085 139.552C213.885 139.552 214.376 140.021 214.557 140.96H214.653C214.717 140.768 214.797 140.587 214.893 140.416C214.989 140.245 215.107 140.096 215.245 139.968C215.384 139.84 215.549 139.739 215.741 139.664C215.933 139.589 216.157 139.552 216.413 139.552C217.565 139.552 218.141 140.4 218.141 142.096V148H216.237V142.336C216.237 141.952 216.168 141.685 216.029 141.536C215.901 141.376 215.731 141.296 215.517 141.296C215.315 141.296 215.139 141.365 214.989 141.504C214.851 141.632 214.781 141.835 214.781 142.112V148H212.861V142.336C212.861 141.952 212.797 141.685 212.669 141.536C212.552 141.376 212.387 141.296 212.173 141.296C211.96 141.296 211.779 141.365 211.629 141.504C211.48 141.632 211.405 141.835 211.405 142.112V148H209.501ZM219.639 139.744H222.007V141.248H222.119C222.322 140.757 222.615 140.352 222.999 140.032C223.383 139.712 223.906 139.552 224.567 139.552C225.026 139.552 225.442 139.637 225.815 139.808C226.199 139.979 226.524 140.24 226.791 140.592C227.068 140.944 227.282 141.392 227.431 141.936C227.591 142.48 227.671 143.125 227.671 143.872C227.671 144.619 227.591 145.264 227.431 145.808C227.282 146.352 227.068 146.8 226.791 147.152C226.524 147.504 226.199 147.765 225.815 147.936C225.442 148.107 225.026 148.192 224.567 148.192C223.906 148.192 223.383 148.037 222.999 147.728C222.615 147.408 222.322 146.997 222.119 146.496H222.007V151.2H219.639V139.744ZM223.543 146.352C224.076 146.352 224.487 146.192 224.775 145.872C225.063 145.541 225.207 145.088 225.207 144.512V143.232C225.207 142.656 225.063 142.208 224.775 141.888C224.487 141.557 224.076 141.392 223.543 141.392C223.127 141.392 222.764 141.493 222.455 141.696C222.156 141.899 222.007 142.219 222.007 142.656V145.088C222.007 145.525 222.156 145.845 222.455 146.048C222.764 146.251 223.127 146.352 223.543 146.352ZM245.003 148L244.299 145.312H241.242L240.554 148H238.122L241.146 136.832H244.538L247.562 148H245.003ZM242.842 139.152H242.714L241.626 143.376H243.931L242.842 139.152ZM248.932 148V136.832H253.252C253.796 136.832 254.282 136.917 254.708 137.088C255.135 137.248 255.492 137.483 255.78 137.792C256.079 138.101 256.303 138.475 256.452 138.912C256.602 139.349 256.676 139.84 256.676 140.384C256.676 140.928 256.602 141.419 256.452 141.856C256.303 142.293 256.079 142.667 255.78 142.976C255.492 143.285 255.135 143.525 254.708 143.696C254.282 143.856 253.796 143.936 253.252 143.936H251.348V148H248.932ZM251.348 142H252.644C253.21 142 253.599 141.893 253.812 141.68C254.036 141.467 254.148 141.115 254.148 140.624V140.144C254.148 139.653 254.036 139.301 253.812 139.088C253.599 138.875 253.21 138.768 252.644 138.768H251.348V142ZM258.59 148V146.224H260.99V138.608H258.59V136.832H265.79V138.608H263.39V146.224H265.79V148H258.59Z" fill="white"/>
<rect x="164.5" y="119.5" width="201" height="44" rx="6.5" stroke="black"/>
<line x1="265.5" y1="165" x2="265.5" y2="253" stroke="black" stroke-dasharray="5 5"/>
<line x1="265.5" y1="39" x2="265.5" y2="127" stroke="black" stroke-dasharray="5 5"/>
<line x1="265.5" y1="377" x2="265.5" y2="465" stroke="black" stroke-dasharray="5 5"/>
</svg>
