<svg width="90" height="80" viewBox="0 0 118 102" fill="none" xmlns="http://www.w3.org/2000/svg">
<path d="M69.6154 19.4971C69.6947 19.4116 69.8253 19.3987 69.9198 19.4671L76.7631 24.42C76.8017 24.448 76.8481 24.4633 76.8957 24.4638L86.8438 24.5765C87.0079 24.5783 87.1176 24.746 87.0536 24.8971L84.1624 31.7205C84.1318 31.7926 84.1399 31.8754 84.184 31.9402L88.3527 38.0672C88.4449 38.2028 88.3701 38.3887 88.2096 38.4226L78.4752 40.4767C78.4286 40.4866 78.3861 40.5106 78.3537 40.5456L72.6099 46.74C72.5306 46.8255 72.4 46.8384 72.3056 46.7701L65.4622 41.8171C65.4236 41.7892 65.3773 41.7739 65.3296 41.7734L55.3815 41.6607C55.2174 41.6588 55.1077 41.4912 55.1717 41.3401L58.063 34.5167C58.0935 34.4445 58.0854 34.3618 58.0413 34.297L53.8727 28.17C53.7804 28.0343 53.8552 27.8484 54.0157 27.8146L63.7501 25.7605C63.7968 25.7506 63.8392 25.7266 63.8716 25.6916L69.6154 19.4971Z" stroke="black" stroke-width="1.1"/>
<path d="M116.861 32.9613C116.861 50.6131 96.2971 64.9226 70.9304 64.9226C45.5638 64.9226 25 50.6131 25 32.9613C25 15.3096 45.5638 1 70.9304 1C96.2971 1 116.861 15.3096 116.861 32.9613Z" stroke="black"/>
<path d="M116.931 53.3716C116.931 71.0233 96.3673 85.3329 71.0006 85.3329C66.1159 85.3329 61.4119 84.8004 57 83.8143" stroke="black"/>
<path d="M114.5 43.0842C108.346 30.4796 91.1951 21.4104 71.0006 21.4104C50.7207 21.4104 33.5106 30.5564 27.4238 43.2442" stroke="black" stroke-opacity="0.2"/>
<path d="M0.5 62.4999L0.500001 83.9999" stroke="black"/>
<path d="M57 62.9999L57 83.9999" stroke="black"/>
<path d="M28.5 78.9999L28.5 99.9999" stroke="black"/>
<path d="M28.5 45.2187L28.5 66.9999" stroke="black" stroke-opacity="0.2"/>
<path d="M25.1387 34.9999V47.4999" stroke="black"/>
<path d="M117 31.4999V54.4542" stroke="black"/>
<path d="M57.3127 83.4174L28.6489 100.61C28.5721 100.656 28.4743 100.601 28.4743 100.511V84.1183H0" stroke="black"/>
<path d="M56.3901 63.0496L28.4743 79.6464V63.1647C28.4743 63.1011 28.4228 63.0495 28.3592 63.0494L0.813653 63.0014C0.581191 63.001 0.495275 62.6958 0.693372 62.5742L28.5 45.4999" stroke="black"/>
</svg>
