<svg width="16" height="16" viewBox="0 0 16 16" fill="none" xmlns="http://www.w3.org/2000/svg">
<g clip-path="url(#clip0_1006_1760)">
<path d="M8.00065 4.66659H5.00065C4.55862 4.66659 4.1347 4.49099 3.82214 4.17843C3.50958 3.86587 3.33398 3.44195 3.33398 2.99992C3.33398 2.55789 3.50958 2.13397 3.82214 1.82141C4.1347 1.50885 4.55862 1.33325 5.00065 1.33325C7.33398 1.33325 8.00065 4.66659 8.00065 4.66659Z" fill="#D9D9D9"/>
<path d="M8.00065 4.66659H11.0007C11.4427 4.66659 11.8666 4.49099 12.1792 4.17843C12.4917 3.86587 12.6673 3.44195 12.6673 2.99992C12.6673 2.55789 12.4917 2.13397 12.1792 1.82141C11.8666 1.50885 11.4427 1.33325 11.0007 1.33325C8.66732 1.33325 8.00065 4.66659 8.00065 4.66659Z" fill="#D9D9D9"/>
<path d="M12.534 14.6666C13.2807 14.6666 13.6541 14.6666 13.9393 14.5213C14.1902 14.3934 14.3942 14.1895 14.522 13.9386C14.6673 13.6534 14.6673 13.28 14.6673 12.5333V6.79992C14.6673 6.05318 14.6673 5.67982 14.522 5.3946C14.3942 5.14372 14.1902 4.93974 13.9393 4.81191C13.6541 4.66659 13.2807 4.66659 12.534 4.66659L3.46732 4.66659C2.72058 4.66659 2.34721 4.66659 2.062 4.81191C1.81111 4.93974 1.60714 5.14372 1.47931 5.3946C1.33398 5.67981 1.33398 6.05318 1.33398 6.79992L1.33398 12.5333C1.33398 13.28 1.33398 13.6534 1.47931 13.9386C1.60714 14.1895 1.81111 14.3934 2.062 14.5213C2.34721 14.6666 2.72058 14.6666 3.46732 14.6666L12.534 14.6666Z" fill="#D9D9D9"/>
<path d="M8.00065 4.66659H5.00065C4.55862 4.66659 4.1347 4.49099 3.82214 4.17843C3.50958 3.86587 3.33398 3.44195 3.33398 2.99992C3.33398 2.55789 3.50958 2.13397 3.82214 1.82141C4.1347 1.50885 4.55862 1.33325 5.00065 1.33325C7.33398 1.33325 8.00065 4.66659 8.00065 4.66659ZM8.00065 4.66659H11.0007C11.4427 4.66659 11.8666 4.49099 12.1792 4.17843C12.4917 3.86587 12.6673 3.44195 12.6673 2.99992C12.6673 2.55789 12.4917 2.13397 12.1792 1.82141C11.8666 1.50885 11.4427 1.33325 11.0007 1.33325C8.66732 1.33325 8.00065 4.66659 8.00065 4.66659ZM8.00065 4.66659L8.00065 14.6666M1.33398 9.33325H14.6673M1.33398 6.79992L1.33398 12.5333C1.33398 13.28 1.33398 13.6534 1.47931 13.9386C1.60714 14.1895 1.81111 14.3934 2.062 14.5213C2.34721 14.6666 2.72058 14.6666 3.46732 14.6666L12.534 14.6666C13.2807 14.6666 13.6541 14.6666 13.9393 14.5213C14.1902 14.3934 14.3942 14.1895 14.522 13.9386C14.6673 13.6534 14.6673 13.28 14.6673 12.5333V6.79992C14.6673 6.05318 14.6673 5.67982 14.522 5.3946C14.3942 5.14372 14.1902 4.93974 13.9393 4.81191C13.6541 4.66659 13.2807 4.66659 12.534 4.66659L3.46732 4.66659C2.72058 4.66659 2.34721 4.66659 2.062 4.81191C1.81111 4.93974 1.60714 5.14372 1.47931 5.3946C1.33398 5.67981 1.33398 6.05318 1.33398 6.79992Z" stroke="black" stroke-width="1.33333" stroke-linecap="round" stroke-linejoin="round"/>
</g>
<defs>
<clipPath id="clip0_1006_1760">
<rect width="16" height="16" fill="white"/>
</clipPath>
</defs>
</svg>
