<svg width="70" height="75" viewBox="0 0 234 108" fill="none" xmlns="http://www.w3.org/2000/svg"> <rect width="234" height="108" fill="white"/> <path d="M6 33.5628C6 29.5979 9.21421 26.3837 13.1791 26.3837H33.4063C36.3503 26.3837 38.7368 28.7702 38.7368 31.7142C38.7368 34.6581 36.3503 37.0447 33.4063 37.0447H18.384V71.0738H33.4063C36.3503 71.0738 38.7368 73.4603 38.7368 76.4043C38.7368 79.3482 36.3503 81.7348 33.4063 81.7348H13.1791C9.21421 81.7348 6 78.5206 6 74.5556V33.5628Z" fill="black"/> <path d="M46.9084 13.192C46.9084 9.77225 49.6807 7 53.1004 7C56.5202 7 59.2924 9.77225 59.2924 13.192V75.5428C59.2924 78.9625 56.5202 81.7348 53.1004 81.7348C49.6807 81.7348 46.9084 78.9625 46.9084 75.5428V13.192Z" fill="black"/> <path d="M69.203 31.7142C69.203 28.7702 71.5896 26.3837 74.5335 26.3837H100.468C104.433 26.3837 107.647 29.5979 107.647 33.5628V74.5556C107.647 78.5206 104.433 81.7348 100.468 81.7348H76.3821C72.4172 81.7348 69.203 78.5206 69.203 74.5556V55.6386C69.203 51.6737 72.4172 48.4595 76.3821 48.4595H95.3709V37.0447H74.5335C71.5895 37.0447 69.203 34.6581 69.203 31.7142ZM81.587 58.6898V71.0738H95.3709V58.6898H81.587Z" fill="black"/> <path d="M117.683 33.5628C117.683 29.5979 120.897 26.3837 124.862 26.3837H172.101C176.066 26.3837 179.28 29.5979 179.28 33.5628V75.5966C179.28 78.9866 176.532 81.7348 173.142 81.7348C169.752 81.7348 167.004 78.9866 167.004 75.5966V37.0447H154.727V75.5428C154.727 78.9625 151.955 81.7348 148.536 81.7348C145.116 81.7348 142.343 78.9625 142.343 75.5428V37.0447H130.067V75.5428C130.067 78.9625 127.295 81.7348 123.875 81.7348C120.455 81.7348 117.683 78.9625 117.683 75.5428V33.5628Z" fill="black"/> <path d="M189.299 33.5628C189.299 29.5979 192.513 26.3837 196.478 26.3837H220.564C224.529 26.3837 227.743 29.5979 227.743 33.5628V74.5556C227.743 78.5206 224.529 81.7348 220.564 81.7348H201.683V94.9264C201.683 98.3462 198.911 101.118 195.491 101.118C192.071 101.118 189.299 98.3462 189.299 94.9264V33.5628ZM201.683 37.0447V71.0738H215.467V37.0447H201.683Z" fill="black"/> </svg>