<svg width="121" height="89" viewBox="0 0 121 89" fill="none" xmlns="http://www.w3.org/2000/svg">
<path d="M49.0156 87.7493L95.0621 61.1085C101.657 57.3062 104.94 50.6343 104.912 43.9747" stroke="black"/>
<path d="M17.125 50.7266L58.2734 27.0113C69.7065 20.4221 83.6236 20.4213 95.0574 27.0093C101.519 30.7326 104.803 37.2111 104.909 43.7348" stroke="black" stroke-opacity="0.2"/>
<path d="M1 60.1V41.6138L17.0053 50.8569V69.2044C17.0053 69.2661 16.9386 69.3046 16.8853 69.2737L1 60.1Z" stroke="black"/>
<path d="M33.0508 78.6262V60.1401L49.0561 69.3832V87.6513C49.0561 87.7127 48.9897 87.7513 48.9363 87.7207L33.0508 78.6262Z" stroke="black"/>
<path d="M1 41.5739L49.4046 13.6337C64.0195 5.19762 82.2199 5.31503 96.83 13.7594V13.7594C107.491 19.9212 107.689 35.4244 97.0284 41.5872L49.016 69.3431" stroke="black"/>
<path d="M104.915 27.0891L104.915 44.218C104.915 51.1979 101.19 57.6469 95.1431 61.1336L49.0566 87.7093" stroke="black"/>
<path d="M17.0059 50.817L64.1995 23.5458C69.6584 20.3913 76.3913 20.3989 81.8452 23.5622V23.5622C85.0398 25.415 85.0373 30.0319 81.8382 31.8769L32.9712 60.06" stroke="black"/>
<path d="M1 60.02L17.0053 50.7769" stroke="black" stroke-opacity="0.2"/>
<path d="M33.0117 78.506L79.4288 51.783C83.698 49.3252 83.6976 43.1622 79.4363 40.6907V40.6907C75.4741 38.3926 70.5792 38.382 66.6108 40.6695L33.4519 59.7833" stroke="black" stroke-opacity="0.2"/>
<path d="M17.0059 69.2631L33.0512 60.0141" stroke="black"/>
<path d="M17.0059 32.3307L33.0112 41.6138L33.0512 60.14" stroke="black"/>
<path d="M49.0566 50.937L65.062 60.22L65.102 78.5061" stroke="black"/>
<path opacity="0.2" d="M17.0059 32.3307V50.8569L33.0512 60.14" stroke="black"/>
<path d="M49.0566 51.017V69.223L65.102 78.5061" stroke="black" stroke-opacity="0.2"/>
</svg>
