<svg width="79" height="109" viewBox="0 0 79 109" fill="none" xmlns="http://www.w3.org/2000/svg">
<path d="M1 98.951L16.3769 107.87L31.7539 98.9126" stroke="black"/>
<path d="M78 72.1952L62.6231 81.1523L54.704 76.5776" stroke="black"/>
<path d="M47.0536 72.1183L54.7805 76.616" stroke="black" stroke-opacity="0.2"/>
<path d="M1 72.2721L16.3769 81.1907L31.7539 72.2336" stroke="black"/>
<path d="M47.1689 9.88018L62.5459 18.7988L77.9228 9.84174" stroke="black"/>
<path d="M1 98.9895L16.3769 90.0709L31.7539 99.028" stroke="black" stroke-opacity="0.2"/>
<path d="M47.2461 72.2721L62.623 63.3535L78 72.3105" stroke="black" stroke-opacity="0.2"/>
<path d="M1 72.3105L16.3769 63.3919L31.7539 72.3489" stroke="black"/>
<path d="M47.1689 9.91859L62.5459 0.999967L77.9228 9.95703" stroke="black"/>
<path d="M1 72.3105V98.9511" stroke="black"/>
<path d="M16.3385 63.4304V90.0709" stroke="black" stroke-opacity="0.2"/>
<path d="M16.3002 81.1907L16.3002 107.87" stroke="black"/>
<path d="M62.5845 0.999969L62.5845 63.3534" stroke="black" stroke-opacity="0.2"/>
<path d="M62.5845 18.7603L62.5845 81.1138" stroke="black"/>
<path d="M77.923 9.84174L77.923 72.1952" stroke="black"/>
<path d="M47.1689 36.8282L47.1689 72.1952" stroke="black" stroke-opacity="0.2"/>
<path d="M47.2078 9.76483L47.2078 36.9051" stroke="black"/>
<path d="M31.7152 72.2721V98.9126" stroke="black"/>
<path d="M54.7805 85.5731L39.4036 94.5302L31.7535 90.0709" stroke="black"/>
<path d="M24.0266 41.2491L39.4035 50.1678L54.7805 41.2107" stroke="black"/>
<path d="M24.0266 85.65L39.4035 76.7314L54.7805 85.6885" stroke="black" stroke-opacity="0.2"/>
<path d="M24.0266 41.2875L39.4035 32.3689L54.7805 41.326" stroke="black"/>
<path d="M24.0654 41.1338L24.0654 67.8897" stroke="black"/>
<path d="M24.0654 67.8897L24.0654 85.65" stroke="black" stroke-opacity="0.2"/>
<path d="M39.4039 32.369V76.6545" stroke="black" stroke-opacity="0.2"/>
<path d="M39.3651 50.1293L39.3651 94.4918" stroke="black"/>
<path d="M54.7806 41.1338L54.7806 85.5731" stroke="black"/>
<path d="M23.95 85.5347L31.6769 90.0325" stroke="black" stroke-opacity="0.2"/>
</svg>
