<svg width="123" height="136" viewBox="0 0 123 136" fill="none" xmlns="http://www.w3.org/2000/svg">
<ellipse cx="51.4682" cy="72.0705" rx="38.6466" ry="50.0664" transform="rotate(-15 51.4682 72.0705)" stroke="black"/>
<ellipse cx="51.3771" cy="71.7292" rx="31.9671" ry="43.0647" transform="rotate(-15 51.3771 71.7292)" stroke="black"/>
<path d="M48.482 22.8114L48.8051 22.5721C51.4161 20.9029 54.2697 19.6241 57.3383 18.8019C77.955 13.2777 100.47 30.4511 107.626 57.1599C114.783 83.8686 103.871 109.999 83.2546 115.523C80.0799 116.374 76.8603 116.686 73.6586 116.508" stroke="black"/>
<path d="M55.6255 19.2799L37.4218 23.9366" stroke="black"/>
<path d="M84.6034 115.129L62.1162 120.957" stroke="black"/>
<rect x="34.2148" y="51.4256" width="5.28501" height="31.6279" transform="rotate(-30 34.2148 51.4256)" stroke="black"/>
<path d="M73.28 6.18036C73.28 9.04139 68.782 11.3607 63.2333 11.3607C57.6846 11.3607 53.1865 9.04139 53.1865 6.18036C53.1865 3.31933 57.6846 1 63.2333 1C68.782 1 73.28 3.31933 73.28 6.18036Z" stroke="black"/>
<path d="M73.28 11.5177C73.28 14.3787 68.782 16.6981 63.2333 16.6981C57.6846 16.6981 53.1865 14.3787 53.1865 11.5177" stroke="black"/>
<path d="M73.28 11.5176C73.28 11.5176 71.5166 6.11469 63.5166 6.11469C55.5166 6.11469 53.1865 11.5176 53.1865 11.5176" stroke="black" stroke-opacity="0.2"/>
<path d="M68.0481 21.8784C68.0481 23.2367 65.8927 24.3378 63.234 24.3378C60.5753 24.3378 58.4199 23.2367 58.4199 21.8784" stroke="black"/>
<path d="M58.4199 21.9831V16.0701" stroke="black"/>
<path d="M68.0479 21.9831V16.0701" stroke="black"/>
<path d="M73.2803 12.2503V6.33734" stroke="black"/>
<path d="M53.1865 12.1456V6.23267" stroke="black"/>
<path d="M68.0481 21.8784C68.0481 21.8784 67.5166 19.4191 63.234 19.4191C59.0166 19.4191 58.4199 21.8784 58.4199 21.8784" stroke="black" stroke-opacity="0.2"/>
<path d="M49.7667 22.3277C35.0802 31.9981 28.241 54.1376 34.2838 76.6898C40.2879 99.0971 57.1015 114.793 74.5352 116.006" stroke="black" stroke-opacity="0.2"/>
<path d="M52.2982 40.311V36.5135C52.7633 36.558 53.1372 36.7343 53.4297 37.0366L53.43 37.037C53.7788 37.3951 53.9742 37.8541 54.0109 38.4244L54.0199 38.5647H54.1606H54.4082H54.567L54.558 38.4062C54.531 37.9332 54.412 37.5077 54.1979 37.1329C53.9839 36.7583 53.6931 36.4626 53.3268 36.2485C53.0215 36.0701 52.6777 35.9671 52.2982 35.9367V35.1147V34.9647H52.1482H51.9005H51.7505V35.1147V35.9422C51.3956 35.9779 51.0686 36.0775 50.7712 36.2426L50.7708 36.2428C50.3946 36.4532 50.0966 36.7425 49.8791 37.1093L50.0081 37.1858L49.8793 37.1089C49.6604 37.4751 49.5524 37.8888 49.5524 38.346C49.5524 38.8886 49.7167 39.358 50.049 39.7456L50.0494 39.7461C50.3816 40.1302 50.8731 40.4301 51.5104 40.6532L51.5111 40.6534L51.7505 40.7359V44.7179C51.436 44.6932 51.1596 44.6191 50.9193 44.4984C50.6193 44.3465 50.3844 44.1376 50.2112 43.8716C50.0382 43.6058 49.9382 43.2972 49.9139 42.942L49.9044 42.8022H49.7643H49.5166H49.3573L49.3669 42.9612C49.394 43.4136 49.5181 43.8194 49.7418 44.1751L49.7418 44.1751L49.7426 44.1763C49.9688 44.5285 50.2751 44.8052 50.6583 45.0058L50.6592 45.0063C50.9818 45.1726 51.3465 45.2676 51.7505 45.2944V46.1147V46.2647H51.9005H52.1482H52.2982V46.1147V45.2896C52.6975 45.2556 53.0601 45.153 53.3839 44.9794C53.7865 44.7635 54.1024 44.4638 54.3284 44.0813C54.555 43.6978 54.6666 43.2627 54.6666 42.7804C54.6666 42.4937 54.6245 42.2298 54.5378 41.9905C54.451 41.7482 54.3181 41.5295 54.1404 41.3351C53.9658 41.1383 53.7466 40.9642 53.4854 40.8118C53.2247 40.6596 52.9186 40.524 52.5683 40.4041L52.2982 40.311ZM52.2982 40.311V40.4697L52.1482 40.418" fill="black" stroke="black" stroke-width="0.3"/>
</svg>
