<svg width="16" height="16" viewBox="0 0 16 16" fill="none" xmlns="http://www.w3.org/2000/svg">
<g clip-path="url(#clip0_1006_1773)">
<path d="M8.00065 14.6666C11.6826 14.6666 14.6673 11.6818 14.6673 7.99992C14.6673 4.31802 11.6826 1.33325 8.00065 1.33325C4.31875 1.33325 1.33398 4.31802 1.33398 7.99992C1.33398 11.6818 4.31875 14.6666 8.00065 14.6666Z" stroke="black" stroke-width="1.66667" stroke-linecap="round" stroke-linejoin="round"/>
<path d="M8.00065 11.9999C10.2098 11.9999 12.0007 10.2091 12.0007 7.99992C12.0007 5.79078 10.2098 3.99992 8.00065 3.99992C5.79151 3.99992 4.00065 5.79078 4.00065 7.99992C4.00065 10.2091 5.79151 11.9999 8.00065 11.9999Z" stroke="black" stroke-width="1.66667" stroke-linecap="round" stroke-linejoin="round"/>
<path d="M8.00065 9.33325C8.73703 9.33325 9.33398 8.7363 9.33398 7.99992C9.33398 7.26354 8.73703 6.66659 8.00065 6.66659C7.26427 6.66659 6.66732 7.26354 6.66732 7.99992C6.66732 8.7363 7.26427 9.33325 8.00065 9.33325Z" stroke="black" stroke-width="1.66667" stroke-linecap="round" stroke-linejoin="round"/>
</g>
<defs>
<clipPath id="clip0_1006_1773">
<rect width="16" height="16" fill="white"/>
</clipPath>
</defs>
</svg>
